<?xml version="1.0" encoding="UTF-8" standalone="no"?>
<!-- Created with Inkscape (http://www.inkscape.org/) -->

<svg
   xmlns:dc="http://purl.org/dc/elements/1.1/"
   xmlns:cc="http://creativecommons.org/ns#"
   xmlns:rdf="http://www.w3.org/1999/02/22-rdf-syntax-ns#"
   xmlns:svg="http://www.w3.org/2000/svg"
   xmlns="http://www.w3.org/2000/svg"
   xmlns:sodipodi="http://sodipodi.sourceforge.net/DTD/sodipodi-0.dtd"
   xmlns:inkscape="http://www.inkscape.org/namespaces/inkscape"
   width="500"
   height="500"
   id="svg8842"
   version="1.1"
   inkscape:version="0.48.4 r9939"
   sodipodi:docname="Nowy dokument 52">
  <defs
     id="defs8844">
    <clipPath
       clipPathUnits="userSpaceOnUse"
       id="clipPath846">
      <path
         inkscape:connector-curvature="0"
         d="m 431.504,653.977 -52.439,-90.83 52.439,-90.832 104.882,0 52.442,90.832 -52.442,90.83 -104.882,0 z"
         id="path848" />
    </clipPath>
    <clipPath
       clipPathUnits="userSpaceOnUse"
       id="clipPath810">
      <path
         inkscape:connector-curvature="0"
         d="m 431.504,653.977 -52.439,-90.83 52.439,-90.832 104.882,0 52.442,90.832 -52.442,90.83 -104.882,0 z"
         id="path812" />
    </clipPath>
    <clipPath
       clipPathUnits="userSpaceOnUse"
       id="clipPath792">
      <path
         inkscape:connector-curvature="0"
         d="m 431.504,653.977 -52.439,-90.83 52.439,-90.832 104.882,0 52.442,90.832 -52.442,90.83 -104.882,0 z"
         id="path794" />
    </clipPath>
    <clipPath
       clipPathUnits="userSpaceOnUse"
       id="clipPath776">
      <path
         inkscape:connector-curvature="0"
         d="m 431.504,653.977 -52.439,-90.83 52.439,-90.832 104.882,0 52.442,90.832 -52.442,90.83 -104.882,0 z"
         id="path778" />
    </clipPath>
    <clipPath
       clipPathUnits="userSpaceOnUse"
       id="clipPath760">
      <path
         inkscape:connector-curvature="0"
         d="m 431.504,653.977 -52.439,-90.83 52.439,-90.832 104.882,0 52.442,90.832 -52.442,90.83 -104.882,0 z"
         id="path762" />
    </clipPath>
    <clipPath
       clipPathUnits="userSpaceOnUse"
       id="clipPath760-7">
      <path
         inkscape:connector-curvature="0"
         d="m 431.504,653.977 -52.439,-90.83 52.439,-90.832 104.882,0 52.442,90.832 -52.442,90.83 -104.882,0 z"
         id="path762-8" />
    </clipPath>
  </defs>
  <sodipodi:namedview
     id="base"
     pagecolor="#ffffff"
     bordercolor="#666666"
     borderopacity="1.0"
     inkscape:pageopacity="0.0"
     inkscape:pageshadow="2"
     inkscape:zoom="0.98994949"
     inkscape:cx="139.53537"
     inkscape:cy="161.53357"
     inkscape:document-units="px"
     inkscape:current-layer="layer1"
     showgrid="false"
     inkscape:showpageshadow="false"
     borderlayer="true"
     inkscape:window-width="1920"
     inkscape:window-height="1056"
     inkscape:window-x="0"
     inkscape:window-y="24"
     inkscape:window-maximized="1" />
  <metadata
     id="metadata8847">
    <rdf:RDF>
      <cc:Work
         rdf:about="">
        <dc:format>image/svg+xml</dc:format>
        <dc:type
           rdf:resource="http://purl.org/dc/dcmitype/StillImage" />
        <dc:title></dc:title>
      </cc:Work>
    </rdf:RDF>
  </metadata>
  <g
     inkscape:label="Layer 1"
     inkscape:groupmode="layer"
     id="layer1"
     transform="translate(0,-552.36218)">
    <rect
       style="fill:#8b3d2f;fill-opacity:1;stroke:none"
       id="rect9144"
       width="576.79712"
       height="547.50269"
       x="-47.477169"
       y="529.10315" />
    <g
       transform="matrix(2.228073,0,0,-2.228073,-826.78239,2055.1925)"
       clip-path="url(#clipPath760-7)"
       id="g758">
      <path
         inkscape:connector-curvature="0"
         id="path764"
         style="fill:none;stroke:#9f4834;stroke-width:70.86599731;stroke-linecap:butt;stroke-linejoin:miter;stroke-miterlimit:4;stroke-opacity:1;stroke-dasharray:none"
         d="m 505.205,548.974 -42.52,0 0,28.346 42.52,0 0,-28.346 z" />
      <path
         inkscape:connector-curvature="0"
         id="path766"
         style="fill:none;stroke:#8b3d2f;stroke-width:42.52000046;stroke-linecap:butt;stroke-linejoin:miter;stroke-miterlimit:4;stroke-opacity:1;stroke-dasharray:none"
         d="m 505.205,548.974 -42.52,0 0,28.346 42.52,0 0,-28.346 z" />
    </g>
    <path
       inkscape:connector-curvature="0"
       d="m 204.11357,832.03812 94.73766,0 0,-63.15696 -94.73766,0 0,63.15696 z"
       style="fill:#672c25;fill-opacity:1;fill-rule:nonzero;stroke:none"
       id="path768" />
    <path
       inkscape:connector-curvature="0"
       d="m 298.85123,832.03812 -94.73766,0 0,-63.15696 94.73766,0 0,63.15696 z"
       style="fill:none;stroke:#7b362a;stroke-width:31.57848167;stroke-linecap:butt;stroke-linejoin:miter;stroke-miterlimit:4;stroke-opacity:1;stroke-dasharray:none"
       id="path770" />
    <g
       transform="matrix(2.228073,0,0,-2.228073,-826.78239,2055.1925)"
       clip-path="none"
       id="g774">
      <path
         inkscape:connector-curvature="0"
         id="path780"
         style="fill:none;stroke:#9f4834;stroke-width:70.86599731;stroke-linecap:butt;stroke-linejoin:miter;stroke-miterlimit:4;stroke-opacity:1;stroke-dasharray:none"
         d="m 405.992,548.974 -42.52,0 0,28.346 42.52,0 0,-28.346 z" />
      <path
         inkscape:connector-curvature="0"
         id="path782"
         style="fill:none;stroke:#8b3d2f;stroke-width:42.52000046;stroke-linecap:butt;stroke-linejoin:miter;stroke-miterlimit:4;stroke-opacity:1;stroke-dasharray:none"
         d="m 405.992,548.974 -42.52,0 0,28.346 42.52,0 0,-28.346 z" />
    </g>
    <path
       inkscape:connector-curvature="0"
       d="m -18.07441,831.40252 94.73766,0 0,-63.15696 -94.73766,0 0,63.15696 z"
       style="fill:#672c25;fill-opacity:1;fill-rule:nonzero;stroke:none"
       id="path768-2" />
    <g
       transform="matrix(2.228073,0,0,-2.228073,-826.78239,2055.1925)"
       clip-path="none"
       id="g790">
      <path
         inkscape:connector-curvature="0"
         id="path796"
         style="fill:none;stroke:#7b362a;stroke-width:14.17300034;stroke-linecap:butt;stroke-linejoin:miter;stroke-miterlimit:4;stroke-opacity:1;stroke-dasharray:none"
         d="m 405.992,548.974 -42.52,0 0,28.346 42.52,0 0,-28.346 z" />
      <path
         inkscape:connector-curvature="0"
         id="path798"
         style="fill:none;stroke:#9f4834;stroke-width:70.86599731;stroke-linecap:butt;stroke-linejoin:miter;stroke-miterlimit:4;stroke-opacity:1;stroke-dasharray:none"
         d="m 604.418,548.974 -42.52,0 0,28.346 42.52,0 0,-28.346 z" />
      <path
         inkscape:connector-curvature="0"
         id="path800"
         style="fill:none;stroke:#8b3d2f;stroke-width:42.52000046;stroke-linecap:butt;stroke-linejoin:miter;stroke-miterlimit:4;stroke-opacity:1;stroke-dasharray:none"
         d="m 604.418,548.974 -42.52,0 0,28.346 42.52,0 0,-28.346 z" />
    </g>
    <path
       inkscape:connector-curvature="0"
       d="m 426.39271,836.45329 94.73766,0 0,-63.15696 -94.73766,0 0,63.15696 z"
       style="fill:#672c25;fill-opacity:1;fill-rule:nonzero;stroke:none"
       id="path768-0" />
    <g
       transform="matrix(2.228073,0,0,-2.228073,-826.78239,2055.1925)"
       clip-path="none"
       id="g808">
      <path
         inkscape:connector-curvature="0"
         id="path814"
         style="fill:none;stroke:#7b362a;stroke-width:14.17300034;stroke-linecap:butt;stroke-linejoin:miter;stroke-miterlimit:4;stroke-opacity:1;stroke-dasharray:none"
         d="m 604.418,548.974 -42.52,0 0,28.346 42.52,0 0,-28.346 z" />
      <path
         inkscape:connector-curvature="0"
         id="path816"
         style="fill:none;stroke:#9f4834;stroke-width:70.86599731;stroke-linecap:butt;stroke-linejoin:miter;stroke-miterlimit:4;stroke-opacity:1;stroke-dasharray:none"
         d="m 455.6,634.013 -42.52,0 0,28.346 42.52,0 0,-28.346 z" />
      <path
         inkscape:connector-curvature="0"
         id="path818"
         style="fill:none;stroke:#8b3d2f;stroke-width:42.52000046;stroke-linecap:butt;stroke-linejoin:miter;stroke-miterlimit:4;stroke-opacity:1;stroke-dasharray:none"
         d="m 455.6,634.013 -42.52,0 0,28.346 42.52,0 0,-28.346 z" />
    </g>
    <path
       inkscape:connector-curvature="0"
       d="m 94.052524,642.504 94.737656,0 0,-63.15696 -94.737656,0 0,63.15696 z"
       style="fill:#672c25;fill-opacity:1;fill-rule:nonzero;stroke:none"
       id="path768-3" />
    <g
       transform="matrix(2.228073,0,0,-2.228073,-826.78239,2055.1925)"
       clip-path="none"
       id="g826">
      <path
         inkscape:connector-curvature="0"
         id="path832"
         style="fill:none;stroke:#7b362a;stroke-width:14.17300034;stroke-linecap:butt;stroke-linejoin:miter;stroke-miterlimit:4;stroke-opacity:1;stroke-dasharray:none"
         d="m 455.6,634.013 -42.52,0 0,28.346 42.52,0 0,-28.346 z" />
      <path
         inkscape:connector-curvature="0"
         id="path834"
         style="fill:none;stroke:#9f4834;stroke-width:70.86599731;stroke-linecap:butt;stroke-linejoin:miter;stroke-miterlimit:4;stroke-opacity:1;stroke-dasharray:none"
         d="m 554.813,634.013 -42.52,0 0,28.346 42.52,0 0,-28.346 z" />
      <path
         inkscape:connector-curvature="0"
         id="path836"
         style="fill:none;stroke:#8b3d2f;stroke-width:42.52000046;stroke-linecap:butt;stroke-linejoin:miter;stroke-miterlimit:4;stroke-opacity:1;stroke-dasharray:none"
         d="m 554.813,634.013 -42.52,0 0,28.346 42.52,0 0,-28.346 z" />
    </g>
    <path
       inkscape:connector-curvature="0"
       d="m 315.27593,642.504 94.73766,0 0,-63.15696 -94.73766,0 0,63.15696 z"
       style="fill:#672c25;fill-opacity:1;fill-rule:nonzero;stroke:none"
       id="path768-1" />
    <g
       transform="matrix(2.228073,0,0,-2.228073,-826.78239,2055.1925)"
       clip-path="none"
       id="g844">
      <path
         inkscape:connector-curvature="0"
         id="path850"
         style="fill:none;stroke:#7b362a;stroke-width:14.17300034;stroke-linecap:butt;stroke-linejoin:miter;stroke-miterlimit:4;stroke-opacity:1;stroke-dasharray:none"
         d="m 554.813,634.013 -42.52,0 0,28.346 42.52,0 0,-28.346 z" />
      <path
         inkscape:connector-curvature="0"
         id="path852"
         style="fill:none;stroke:#9f4834;stroke-width:70.86599731;stroke-linecap:butt;stroke-linejoin:miter;stroke-miterlimit:4;stroke-opacity:1;stroke-dasharray:none"
         d="m 455.6,463.934 -42.52,0 0,28.346 42.52,0 0,-28.346 z" />
      <path
         inkscape:connector-curvature="0"
         id="path854"
         style="fill:none;stroke:#8b3d2f;stroke-width:42.52000046;stroke-linecap:butt;stroke-linejoin:miter;stroke-miterlimit:4;stroke-opacity:1;stroke-dasharray:none"
         d="m 455.6,463.934 -42.52,0 0,28.346 42.52,0 0,-28.346 z" />
    </g>
    <path
       inkscape:connector-curvature="0"
       d="m 93.042374,1022.3213 94.737656,0 0,-63.1569 -94.737656,0 0,63.1569 z"
       style="fill:#672c25;fill-opacity:1;fill-rule:nonzero;stroke:none"
       id="path768-0-2" />
    <g
       transform="matrix(2.228073,0,0,-2.228073,-826.78239,2055.1925)"
       clip-path="none"
       id="g862">
      <path
         inkscape:connector-curvature="0"
         id="path868"
         style="fill:none;stroke:#7b362a;stroke-width:14.17300034;stroke-linecap:butt;stroke-linejoin:miter;stroke-miterlimit:4;stroke-opacity:1;stroke-dasharray:none"
         d="m 455.6,463.934 -42.52,0 0,28.346 42.52,0 0,-28.346 z" />
      <path
         inkscape:connector-curvature="0"
         id="path870"
         style="fill:none;stroke:#9f4834;stroke-width:70.86599731;stroke-linecap:butt;stroke-linejoin:miter;stroke-miterlimit:4;stroke-opacity:1;stroke-dasharray:none"
         d="m 554.813,463.934 -42.52,0 0,28.346 42.52,0 0,-28.346 z" />
      <path
         inkscape:connector-curvature="0"
         id="path872"
         style="fill:none;stroke:#8b3d2f;stroke-width:42.52000046;stroke-linecap:butt;stroke-linejoin:miter;stroke-miterlimit:4;stroke-opacity:1;stroke-dasharray:none"
         d="m 554.813,463.934 -42.52,0 0,28.346 42.52,0 0,-28.346 z" />
    </g>
    <path
       inkscape:connector-curvature="0"
       d="m 313.25563,1024.3416 94.73766,0 0,-63.15689 -94.73766,0 0,63.15689 z"
       style="fill:#672c25;fill-opacity:1;fill-rule:nonzero;stroke:none"
       id="path768-0-0" />
    <g
       transform="matrix(2.228073,0,0,-2.228073,-826.78239,2055.1925)"
       clip-path="none"
       id="g880">
      <path
         inkscape:connector-curvature="0"
         id="path886"
         style="fill:none;stroke:#7b362a;stroke-width:14.17300034;stroke-linecap:butt;stroke-linejoin:miter;stroke-miterlimit:4;stroke-opacity:1;stroke-dasharray:none"
         d="m 554.813,463.934 -42.52,0 0,28.346 42.52,0 0,-28.346 z" />
    </g>
  </g>
</svg>
