<?xml version="1.0" encoding="UTF-8" standalone="no"?>
<!-- Created with Inkscape (http://www.inkscape.org/) -->

<svg
   xmlns:dc="http://purl.org/dc/elements/1.1/"
   xmlns:cc="http://creativecommons.org/ns#"
   xmlns:rdf="http://www.w3.org/1999/02/22-rdf-syntax-ns#"
   xmlns:svg="http://www.w3.org/2000/svg"
   xmlns="http://www.w3.org/2000/svg"
   xmlns:sodipodi="http://sodipodi.sourceforge.net/DTD/sodipodi-0.dtd"
   xmlns:inkscape="http://www.inkscape.org/namespaces/inkscape"
   width="500"
   height="500"
   id="svg9374"
   version="1.1"
   inkscape:version="0.48.4 r9939"
   sodipodi:docname="Nowy dokument 59">
  <defs
     id="defs9376" />
  <sodipodi:namedview
     id="base"
     pagecolor="#ffffff"
     bordercolor="#666666"
     borderopacity="1.0"
     inkscape:pageopacity="0.0"
     inkscape:pageshadow="2"
     inkscape:zoom="0.98994949"
     inkscape:cx="324.63679"
     inkscape:cy="331.13121"
     inkscape:document-units="px"
     inkscape:current-layer="layer1"
     showgrid="false"
     inkscape:showpageshadow="false"
     borderlayer="true"
     inkscape:window-width="1920"
     inkscape:window-height="1056"
     inkscape:window-x="0"
     inkscape:window-y="24"
     inkscape:window-maximized="1" />
  <metadata
     id="metadata9379">
    <rdf:RDF>
      <cc:Work
         rdf:about="">
        <dc:format>image/svg+xml</dc:format>
        <dc:type
           rdf:resource="http://purl.org/dc/dcmitype/StillImage" />
        <dc:title></dc:title>
      </cc:Work>
    </rdf:RDF>
  </metadata>
  <g
     inkscape:label="Layer 1"
     inkscape:groupmode="layer"
     id="layer1"
     transform="translate(0,-552.36218)">
    <rect
       style="fill:#3c4694;fill-opacity:1;stroke:none"
       id="rect9923"
       width="537.40118"
       height="536.39099"
       x="-18.182745"
       y="525.06256" />
    <g
       clip-path="none"
       id="g26"
       transform="matrix(2.351727,0,0,-2.351727,-463.07953,1935.0064)">
      <g
         transform="translate(198.2515,554.3481)"
         id="g32">
        <path
           id="path34"
           style="fill:#ffffff;fill-opacity:1;fill-rule:nonzero;stroke:none"
           d="m 0,0 c 0,-11.741 -9.519,-21.26 -21.261,-21.26 -11.74,0 -21.26,9.519 -21.26,21.26 0,11.742 9.52,21.26 21.26,21.26 C -9.519,21.26 0,11.742 0,0"
           inkscape:connector-curvature="0" />
      </g>
      <g
         transform="translate(205.3374,554.3481)"
         id="g36">
        <path
           id="path38"
           style="fill:#3bade2;fill-opacity:1;fill-rule:nonzero;stroke:none"
           d="m 0,0 14.174,0 c 0.57,-22.756 -19.766,-43.09 -42.52,-42.52 -22.757,-0.569 -43.089,19.764 -42.52,42.52 -0.57,22.756 19.765,43.09 42.521,42.52 C -5.593,43.091 14.745,22.755 14.174,0 L 0,0 C 0.382,15.164 -13.183,28.728 -28.346,28.346 -43.51,28.728 -57.074,15.164 -56.692,0 -57.073,-15.164 -43.51,-28.727 -28.346,-28.346 -13.183,-28.727 0.382,-15.164 0,0"
           inkscape:connector-curvature="0" />
      </g>
      <g
         transform="translate(191.1646,554.3481)"
         id="g40">
        <path
           id="path42"
           style="fill:#337abe;fill-opacity:1;fill-rule:nonzero;stroke:none"
           d="M 0,0 14.173,0 C 14.555,-15.164 0.99,-28.727 -14.173,-28.346 -29.337,-28.727 -42.9,-15.164 -42.52,0 -42.901,15.164 -29.337,28.728 -14.173,28.346 0.99,28.728 14.555,15.164 14.173,0 L 0,0 C 0.193,7.573 -6.6,14.366 -14.173,14.173 -21.746,14.366 -28.54,7.573 -28.347,0 -28.54,-7.572 -21.746,-14.366 -14.173,-14.173 -6.6,-14.366 0.193,-7.573 0,0"
           inkscape:connector-curvature="0" />
      </g>
      <g
         transform="translate(176.9917,554.3481)"
         id="g44">
        <path
           id="path46"
           style="fill:#3c4694;fill-opacity:1;fill-rule:nonzero;stroke:none"
           d="M 0,0 14.173,0 C 14.366,-7.573 7.573,-14.366 0,-14.173 -7.573,-14.366 -14.367,-7.572 -14.174,0 -14.367,7.573 -7.573,14.366 0,14.173 7.573,14.366 14.366,7.573 14.173,0 L 0,0 z"
           inkscape:connector-curvature="0" />
      </g>
      <g
         transform="translate(283.2905,554.3481)"
         id="g48">
        <path
           id="path50"
           style="fill:#ffffff;fill-opacity:1;fill-rule:nonzero;stroke:none"
           d="m 0,0 c 0,-11.741 -9.518,-21.26 -21.26,-21.26 -11.741,0 -21.26,9.519 -21.26,21.26 0,11.742 9.519,21.26 21.26,21.26 C -9.518,21.26 0,11.742 0,0"
           inkscape:connector-curvature="0" />
      </g>
      <g
         transform="translate(290.3765,554.3481)"
         id="g52">
        <path
           id="path54"
           style="fill:#3bade2;fill-opacity:1;fill-rule:nonzero;stroke:none"
           d="M 0,0 14.173,0 C 14.745,-22.754 -5.591,-43.091 -28.346,-42.52 -51.101,-43.089 -71.436,-22.755 -70.865,0 -71.436,22.755 -51.1,43.091 -28.345,42.52 -5.592,43.092 14.747,22.753 14.173,0 L 0,0 C 0.383,15.163 -13.182,28.728 -28.345,28.346 -43.509,28.728 -57.073,15.164 -56.691,0 -57.073,-15.164 -43.509,-28.727 -28.346,-28.346 -13.182,-28.728 0.382,-15.164 0,0"
           inkscape:connector-curvature="0" />
      </g>
      <g
         transform="translate(276.2036,554.3481)"
         id="g56">
        <path
           id="path58"
           style="fill:#337abe;fill-opacity:1;fill-rule:nonzero;stroke:none"
           d="M 0,0 14.173,0 C 14.555,-15.164 0.991,-28.728 -14.173,-28.346 -29.336,-28.727 -42.9,-15.164 -42.519,0 -42.9,15.164 -29.336,28.728 -14.172,28.346 0.991,28.728 14.556,15.163 14.173,0 L 0,0 C 0.193,7.574 -6.599,14.366 -14.173,14.173 -21.746,14.366 -28.539,7.573 -28.346,0 c -0.193,-7.572 6.6,-14.366 14.173,-14.173 C -6.6,-14.366 0.193,-7.573 0,0"
           inkscape:connector-curvature="0" />
      </g>
      <g
         transform="translate(262.0308,554.3481)"
         id="g60">
        <path
           id="path62"
           style="fill:#3c4694;fill-opacity:1;fill-rule:nonzero;stroke:none"
           d="M 0,0 14.173,0 C 14.366,-7.573 7.573,-14.366 0,-14.173 -7.573,-14.366 -14.366,-7.572 -14.173,0 -14.366,7.573 -7.573,14.366 0,14.173 7.574,14.366 14.366,7.574 14.173,0 L 0,0 z"
           inkscape:connector-curvature="0" />
      </g>
      <g
         transform="translate(368.3301,554.3481)"
         id="g64">
        <path
           id="path66"
           style="fill:#ffffff;fill-opacity:1;fill-rule:nonzero;stroke:none"
           d="m 0,0 c 0,-11.741 -9.518,-21.26 -21.26,-21.26 -11.74,0 -21.26,9.519 -21.26,21.26 0,11.742 9.52,21.26 21.26,21.26 C -9.518,21.26 0,11.742 0,0"
           inkscape:connector-curvature="0" />
      </g>
      <g
         transform="translate(375.416,554.3481)"
         id="g68">
        <path
           id="path70"
           style="fill:#3bade2;fill-opacity:1;fill-rule:nonzero;stroke:none"
           d="m 0,0 14.174,0 c 0.57,-22.754 -19.766,-43.091 -42.52,-42.52 -22.758,-0.568 -43.089,19.764 -42.519,42.52 -0.57,22.756 19.763,43.09 42.519,42.52 C -5.592,43.092 14.746,22.753 14.174,0 L 0,0 C 0.383,15.163 -13.184,28.728 -28.346,28.346 -43.51,28.728 -57.074,15.164 -56.691,0 -57.072,-15.164 -43.51,-28.727 -28.346,-28.346 -13.184,-28.728 0.381,-15.164 0,0"
           inkscape:connector-curvature="0" />
      </g>
      <g
         transform="translate(361.2422,554.3481)"
         id="g72">
        <path
           id="path74"
           style="fill:#337abe;fill-opacity:1;fill-rule:nonzero;stroke:none"
           d="M 0,0 14.174,0 C 14.555,-15.164 0.99,-28.728 -14.172,-28.346 -29.336,-28.727 -42.898,-15.164 -42.518,0 -42.9,15.164 -29.336,28.728 -14.172,28.346 0.99,28.728 14.557,15.163 14.174,0 L 0,0 C 0.193,7.574 -6.598,14.366 -14.172,14.173 -21.744,14.366 -28.539,7.573 -28.346,0 -28.539,-7.572 -21.744,-14.366 -14.172,-14.173 -6.6,-14.366 0.193,-7.573 0,0"
           inkscape:connector-curvature="0" />
      </g>
      <g
         transform="translate(347.0703,554.3481)"
         id="g76">
        <path
           id="path78"
           style="fill:#3c4694;fill-opacity:1;fill-rule:nonzero;stroke:none"
           d="M 0,0 14.172,0 C 14.365,-7.573 7.572,-14.366 0,-14.173 -7.572,-14.366 -14.367,-7.572 -14.174,0 -14.367,7.573 -7.572,14.366 0,14.173 7.574,14.366 14.365,7.574 14.172,0 L 0,0 z"
           inkscape:connector-curvature="0" />
      </g>
      <g
         transform="translate(453.3691,554.3481)"
         id="g80">
        <path
           id="path82"
           style="fill:#ffffff;fill-opacity:1;fill-rule:nonzero;stroke:none"
           d="m 0,0 c 0,-11.741 -9.518,-21.26 -21.26,-21.26 -11.74,0 -21.26,9.519 -21.26,21.26 0,11.742 9.52,21.26 21.26,21.26 C -9.518,21.26 0,11.742 0,0"
           inkscape:connector-curvature="0" />
      </g>
      <g
         transform="translate(460.4551,554.3481)"
         id="g84">
        <path
           id="path86"
           style="fill:#3bade2;fill-opacity:1;fill-rule:nonzero;stroke:none"
           d="m 0,0 14.174,0 c 0.57,-22.754 -19.766,-43.091 -42.52,-42.52 -22.758,-0.568 -43.09,19.764 -42.519,42.52 -0.571,22.756 19.763,43.09 42.519,42.52 C -5.592,43.092 14.746,22.753 14.174,0 L 0,0 C 0.383,15.163 -13.184,28.728 -28.346,28.346 -43.51,28.728 -57.074,15.164 -56.691,0 -57.072,-15.164 -43.51,-28.727 -28.346,-28.346 -13.184,-28.728 0.381,-15.164 0,0"
           inkscape:connector-curvature="0" />
      </g>
      <g
         transform="translate(446.2813,554.3481)"
         id="g88">
        <path
           id="path90"
           style="fill:#337abe;fill-opacity:1;fill-rule:nonzero;stroke:none"
           d="M 0,0 14.174,0 C 14.555,-15.164 0.99,-28.728 -14.172,-28.346 -29.336,-28.727 -42.898,-15.164 -42.518,0 -42.9,15.164 -29.336,28.728 -14.172,28.346 0.99,28.728 14.557,15.163 14.174,0 L 0,0 C 0.193,7.574 -6.598,14.366 -14.172,14.173 -21.744,14.366 -28.539,7.573 -28.346,0 -28.539,-7.572 -21.744,-14.366 -14.172,-14.173 -6.6,-14.366 0.193,-7.573 0,0"
           inkscape:connector-curvature="0" />
      </g>
      <g
         transform="translate(432.1094,554.3481)"
         id="g92">
        <path
           id="path94"
           style="fill:#3c4694;fill-opacity:1;fill-rule:nonzero;stroke:none"
           d="M 0,0 14.172,0 C 14.365,-7.573 7.572,-14.366 0,-14.173 -7.572,-14.366 -14.367,-7.572 -14.174,0 -14.367,7.573 -7.572,14.366 0,14.173 7.574,14.366 14.365,7.574 14.172,0 L 0,0 z"
           inkscape:connector-curvature="0" />
      </g>
      <g
         transform="translate(240.771,533.0884)"
         id="g96">
        <path
           id="path98"
           style="fill:#ffffff;fill-opacity:1;fill-rule:nonzero;stroke:none"
           d="m 0,0 c 0,-11.741 -9.518,-21.26 -21.26,-21.26 -11.741,0 -21.26,9.519 -21.26,21.26 0,11.742 9.519,21.26 21.26,21.26 C -9.518,21.26 0,11.742 0,0"
           inkscape:connector-curvature="0" />
      </g>
      <g
         transform="translate(247.8569,533.0884)"
         id="g100">
        <path
           id="path102"
           style="fill:#3bade2;fill-opacity:1;fill-rule:nonzero;stroke:none"
           d="M 0,0 14.174,0 C 14.745,-22.754 -5.591,-43.091 -28.346,-42.52 -51.101,-43.089 -71.436,-22.755 -70.865,0 -71.436,22.755 -51.1,43.091 -28.345,42.52 -5.592,43.092 14.746,22.753 14.174,0 L 0,0 C 0.383,15.163 -13.182,28.728 -28.345,28.346 -43.509,28.728 -57.073,15.164 -56.691,0 -57.073,-15.164 -43.509,-28.727 -28.346,-28.346 -13.182,-28.728 0.382,-15.164 0,0"
           inkscape:connector-curvature="0" />
      </g>
      <g
         transform="translate(233.6841,533.0884)"
         id="g104">
        <path
           id="path106"
           style="fill:#337abe;fill-opacity:1;fill-rule:nonzero;stroke:none"
           d="M 0,0 14.173,0 C 14.555,-15.164 0.991,-28.728 -14.173,-28.346 -29.336,-28.727 -42.9,-15.164 -42.519,0 -42.9,15.164 -29.336,28.728 -14.172,28.346 0.991,28.728 14.556,15.163 14.173,0 L 0,0 C 0.193,7.574 -6.599,14.366 -14.173,14.173 -21.746,14.366 -28.539,7.573 -28.346,0 c -0.193,-7.572 6.6,-14.366 14.173,-14.173 C -6.6,-14.366 0.193,-7.573 0,0"
           inkscape:connector-curvature="0" />
      </g>
      <g
         transform="translate(219.5112,533.0884)"
         id="g108">
        <path
           id="path110"
           style="fill:#3c4694;fill-opacity:1;fill-rule:nonzero;stroke:none"
           d="M 0,0 14.173,0 C 14.366,-7.573 7.573,-14.366 0,-14.173 -7.573,-14.366 -14.366,-7.572 -14.173,0 -14.366,7.573 -7.573,14.366 0,14.173 7.574,14.366 14.366,7.574 14.173,0 L 0,0 z"
           inkscape:connector-curvature="0" />
      </g>
      <g
         transform="translate(325.8105,533.0884)"
         id="g112">
        <path
           id="path114"
           style="fill:#ffffff;fill-opacity:1;fill-rule:nonzero;stroke:none"
           d="M 0,0 C 0,-11.741 -9.518,-21.26 -21.261,-21.26 -33,-21.26 -42.52,-11.741 -42.52,0 c 0,11.742 9.52,21.26 21.259,21.26 C -9.518,21.26 0,11.742 0,0"
           inkscape:connector-curvature="0" />
      </g>
      <g
         transform="translate(332.8965,533.0884)"
         id="g116">
        <path
           id="path118"
           style="fill:#3bade2;fill-opacity:1;fill-rule:nonzero;stroke:none"
           d="m 0,0 14.174,0 c 0.57,-22.755 -19.768,-43.091 -42.519,-42.52 -22.758,-0.569 -43.09,19.764 -42.521,42.52 -0.57,22.756 19.765,43.09 42.521,42.52 C -5.594,43.092 14.746,22.753 14.174,0 L 0,0 C 0.383,15.163 -13.184,28.728 -28.345,28.346 -43.51,28.728 -57.073,15.164 -56.692,0 -57.073,-15.164 -43.51,-28.727 -28.345,-28.346 -13.184,-28.728 0.381,-15.164 0,0"
           inkscape:connector-curvature="0" />
      </g>
      <g
         transform="translate(318.7227,533.0884)"
         id="g120">
        <path
           id="path122"
           style="fill:#337abe;fill-opacity:1;fill-rule:nonzero;stroke:none"
           d="M 0,0 14.174,0 C 14.555,-15.164 0.99,-28.728 -14.171,-28.346 -29.336,-28.727 -42.899,-15.164 -42.518,0 -42.899,15.164 -29.336,28.728 -14.171,28.346 0.99,28.728 14.557,15.163 14.174,0 L 0,0 C 0.193,7.574 -6.598,14.365 -14.171,14.173 -21.745,14.366 -28.538,7.573 -28.345,0 -28.539,-7.572 -21.744,-14.366 -14.171,-14.173 -6.6,-14.366 0.193,-7.573 0,0"
           inkscape:connector-curvature="0" />
      </g>
      <g
         transform="translate(304.5513,533.0884)"
         id="g124">
        <path
           id="path126"
           style="fill:#3c4694;fill-opacity:1;fill-rule:nonzero;stroke:none"
           d="M 0,0 14.171,0 C 14.365,-7.573 7.572,-14.366 0,-14.173 -7.573,-14.366 -14.367,-7.572 -14.174,0 -14.367,7.573 -7.573,14.366 0,14.173 7.574,14.365 14.365,7.574 14.171,0 L 0,0 z"
           inkscape:connector-curvature="0" />
      </g>
      <g
         transform="translate(410.8496,533.0884)"
         id="g128">
        <path
           id="path130"
           style="fill:#ffffff;fill-opacity:1;fill-rule:nonzero;stroke:none"
           d="m 0,0 c 0,-11.741 -9.518,-21.26 -21.26,-21.26 -11.74,0 -21.26,9.519 -21.26,21.26 0,11.742 9.52,21.26 21.26,21.26 C -9.518,21.26 0,11.742 0,0"
           inkscape:connector-curvature="0" />
      </g>
      <g
         transform="translate(417.9355,533.0884)"
         id="g132">
        <path
           id="path134"
           style="fill:#3bade2;fill-opacity:1;fill-rule:nonzero;stroke:none"
           d="m 0,0 14.174,0 c 0.57,-22.754 -19.766,-43.091 -42.52,-42.52 -22.758,-0.568 -43.09,19.764 -42.519,42.52 -0.571,22.756 19.763,43.09 42.519,42.52 C -5.592,43.092 14.746,22.753 14.174,0 L 0,0 C 0.383,15.163 -13.184,28.728 -28.346,28.346 -43.51,28.728 -57.074,15.164 -56.691,0 -57.072,-15.164 -43.51,-28.727 -28.346,-28.346 -13.184,-28.728 0.381,-15.164 0,0"
           inkscape:connector-curvature="0" />
      </g>
      <g
         transform="translate(403.7617,533.0884)"
         id="g136">
        <path
           id="path138"
           style="fill:#337abe;fill-opacity:1;fill-rule:nonzero;stroke:none"
           d="M 0,0 14.174,0 C 14.555,-15.164 0.99,-28.728 -14.172,-28.346 -29.336,-28.727 -42.898,-15.164 -42.518,0 -42.9,15.164 -29.336,28.728 -14.172,28.346 0.99,28.728 14.557,15.163 14.174,0 L 0,0 C 0.193,7.574 -6.598,14.366 -14.172,14.173 -21.744,14.366 -28.539,7.573 -28.346,0 -28.539,-7.572 -21.744,-14.366 -14.172,-14.173 -6.6,-14.366 0.193,-7.573 0,0"
           inkscape:connector-curvature="0" />
      </g>
      <g
         transform="translate(389.5898,533.0884)"
         id="g140">
        <path
           id="path142"
           style="fill:#3c4694;fill-opacity:1;fill-rule:nonzero;stroke:none"
           d="M 0,0 14.172,0 C 14.365,-7.573 7.572,-14.366 0,-14.173 -7.572,-14.366 -14.367,-7.572 -14.174,0 -14.367,7.573 -7.572,14.366 0,14.173 7.574,14.366 14.365,7.574 14.172,0 L 0,0 z"
           inkscape:connector-curvature="0" />
      </g>
      <g
         transform="translate(198.2515,511.8286)"
         id="g144">
        <path
           id="path146"
           style="fill:#ffffff;fill-opacity:1;fill-rule:nonzero;stroke:none"
           d="m 0,0 c 0,-11.741 -9.518,-21.26 -21.26,-21.26 -11.741,0 -21.26,9.519 -21.26,21.26 0,11.742 9.519,21.26 21.26,21.26 C -9.518,21.26 0,11.742 0,0"
           inkscape:connector-curvature="0" />
      </g>
      <g
         transform="translate(205.3374,511.8286)"
         id="g148">
        <path
           id="path150"
           style="fill:#3bade2;fill-opacity:1;fill-rule:nonzero;stroke:none"
           d="M 0,0 14.174,0 C 14.745,-22.754 -5.591,-43.091 -28.346,-42.52 -51.101,-43.089 -71.436,-22.755 -70.865,0 -71.436,22.755 -51.1,43.091 -28.345,42.52 -5.592,43.092 14.746,22.753 14.174,0 L 0,0 C 0.383,15.163 -13.182,28.728 -28.345,28.346 -43.509,28.728 -57.073,15.164 -56.691,0 -57.073,-15.164 -43.509,-28.727 -28.346,-28.346 -13.182,-28.728 0.382,-15.164 0,0"
           inkscape:connector-curvature="0" />
      </g>
      <g
         transform="translate(191.1646,511.8286)"
         id="g152">
        <path
           id="path154"
           style="fill:#337abe;fill-opacity:1;fill-rule:nonzero;stroke:none"
           d="M 0,0 14.173,0 C 14.555,-15.164 0.991,-28.728 -14.173,-28.346 -29.336,-28.727 -42.9,-15.164 -42.519,0 -42.9,15.164 -29.336,28.728 -14.172,28.346 0.991,28.728 14.556,15.163 14.173,0 L 0,0 C 0.193,7.574 -6.599,14.366 -14.173,14.173 -21.746,14.366 -28.539,7.573 -28.346,0 c -0.193,-7.572 6.6,-14.366 14.173,-14.173 C -6.6,-14.366 0.193,-7.573 0,0"
           inkscape:connector-curvature="0" />
      </g>
      <g
         transform="translate(176.9917,511.8286)"
         id="g156">
        <path
           id="path158"
           style="fill:#3c4694;fill-opacity:1;fill-rule:nonzero;stroke:none"
           d="M 0,0 14.173,0 C 14.366,-7.573 7.573,-14.366 0,-14.173 -7.573,-14.366 -14.366,-7.572 -14.173,0 -14.366,7.573 -7.573,14.366 0,14.173 7.574,14.366 14.366,7.574 14.173,0 L 0,0 z"
           inkscape:connector-curvature="0" />
      </g>
      <g
         transform="translate(283.2905,511.8286)"
         id="g160">
        <path
           id="path162"
           style="fill:#ffffff;fill-opacity:1;fill-rule:nonzero;stroke:none"
           d="m 0,0 c 0,-11.741 -9.518,-21.26 -21.26,-21.26 -11.74,0 -21.26,9.519 -21.26,21.26 0,11.742 9.52,21.26 21.26,21.26 C -9.518,21.26 0,11.742 0,0"
           inkscape:connector-curvature="0" />
      </g>
      <g
         transform="translate(290.3765,511.8286)"
         id="g164">
        <path
           id="path166"
           style="fill:#3bade2;fill-opacity:1;fill-rule:nonzero;stroke:none"
           d="m 0,0 14.173,0 c 0.572,-22.754 -19.764,-43.091 -42.519,-42.52 -22.756,-0.568 -43.088,19.764 -42.519,42.52 -0.57,22.756 19.764,43.09 42.52,42.52 C -5.592,43.092 14.747,22.753 14.173,0 L 0,0 C 0.383,15.163 -13.182,28.728 -28.345,28.346 -43.509,28.728 -57.073,15.164 -56.691,0 -57.072,-15.164 -43.51,-28.727 -28.346,-28.346 -13.182,-28.728 0.382,-15.164 0,0"
           inkscape:connector-curvature="0" />
      </g>
      <g
         transform="translate(276.2036,511.8286)"
         id="g168">
        <path
           id="path170"
           style="fill:#337abe;fill-opacity:1;fill-rule:nonzero;stroke:none"
           d="M 0,0 14.173,0 C 14.555,-15.164 0.991,-28.728 -14.173,-28.346 -29.337,-28.727 -42.899,-15.164 -42.519,0 -42.9,15.164 -29.336,28.728 -14.172,28.346 0.991,28.728 14.556,15.163 14.173,0 L 0,0 C 0.193,7.574 -6.599,14.366 -14.173,14.173 -21.745,14.366 -28.539,7.573 -28.346,0 -28.539,-7.572 -21.745,-14.366 -14.173,-14.173 -6.6,-14.366 0.193,-7.573 0,0"
           inkscape:connector-curvature="0" />
      </g>
      <g
         transform="translate(262.0308,511.8286)"
         id="g172">
        <path
           id="path174"
           style="fill:#3c4694;fill-opacity:1;fill-rule:nonzero;stroke:none"
           d="M 0,0 14.173,0 C 14.366,-7.573 7.573,-14.366 0,-14.173 -7.572,-14.366 -14.366,-7.572 -14.173,0 -14.366,7.573 -7.572,14.366 0,14.173 7.574,14.366 14.366,7.574 14.173,0 L 0,0 z"
           inkscape:connector-curvature="0" />
      </g>
      <g
         transform="translate(368.3301,511.8286)"
         id="g176">
        <path
           id="path178"
           style="fill:#ffffff;fill-opacity:1;fill-rule:nonzero;stroke:none"
           d="m 0,0 c 0,-11.741 -9.518,-21.26 -21.26,-21.26 -11.74,0 -21.26,9.519 -21.26,21.26 0,11.742 9.52,21.26 21.26,21.26 C -9.518,21.26 0,11.742 0,0"
           inkscape:connector-curvature="0" />
      </g>
      <g
         transform="translate(375.416,511.8286)"
         id="g180">
        <path
           id="path182"
           style="fill:#3bade2;fill-opacity:1;fill-rule:nonzero;stroke:none"
           d="m 0,0 14.174,0 c 0.57,-22.754 -19.766,-43.091 -42.52,-42.52 -22.758,-0.568 -43.089,19.764 -42.519,42.52 -0.57,22.756 19.763,43.09 42.519,42.52 C -5.592,43.092 14.746,22.753 14.174,0 L 0,0 C 0.383,15.163 -13.184,28.728 -28.346,28.346 -43.51,28.728 -57.074,15.164 -56.691,0 -57.072,-15.164 -43.51,-28.727 -28.346,-28.346 -13.184,-28.728 0.381,-15.164 0,0"
           inkscape:connector-curvature="0" />
      </g>
      <g
         transform="translate(361.2422,511.8286)"
         id="g184">
        <path
           id="path186"
           style="fill:#337abe;fill-opacity:1;fill-rule:nonzero;stroke:none"
           d="M 0,0 14.174,0 C 14.555,-15.164 0.99,-28.728 -14.172,-28.346 -29.336,-28.727 -42.898,-15.164 -42.518,0 -42.9,15.164 -29.336,28.728 -14.172,28.346 0.99,28.728 14.557,15.163 14.174,0 L 0,0 C 0.193,7.574 -6.598,14.366 -14.172,14.173 -21.744,14.366 -28.539,7.573 -28.346,0 -28.539,-7.572 -21.744,-14.366 -14.172,-14.173 -6.6,-14.366 0.193,-7.573 0,0"
           inkscape:connector-curvature="0" />
      </g>
      <g
         transform="translate(347.0703,511.8286)"
         id="g188">
        <path
           id="path190"
           style="fill:#3c4694;fill-opacity:1;fill-rule:nonzero;stroke:none"
           d="M 0,0 14.172,0 C 14.365,-7.573 7.572,-14.366 0,-14.173 -7.572,-14.366 -14.367,-7.572 -14.174,0 -14.367,7.573 -7.572,14.366 0,14.173 7.574,14.366 14.365,7.574 14.172,0 L 0,0 z"
           inkscape:connector-curvature="0" />
      </g>
      <g
         transform="translate(453.3691,511.8286)"
         id="g192">
        <path
           id="path194"
           style="fill:#ffffff;fill-opacity:1;fill-rule:nonzero;stroke:none"
           d="m 0,0 c 0,-11.741 -9.518,-21.26 -21.26,-21.26 -11.74,0 -21.26,9.519 -21.26,21.26 0,11.742 9.52,21.26 21.26,21.26 C -9.518,21.26 0,11.742 0,0"
           inkscape:connector-curvature="0" />
      </g>
      <g
         transform="translate(460.4551,511.8286)"
         id="g196">
        <path
           id="path198"
           style="fill:#3bade2;fill-opacity:1;fill-rule:nonzero;stroke:none"
           d="m 0,0 14.174,0 c 0.57,-22.754 -19.766,-43.091 -42.52,-42.52 -22.758,-0.568 -43.09,19.764 -42.519,42.52 -0.571,22.756 19.763,43.09 42.519,42.52 C -5.592,43.092 14.746,22.753 14.174,0 L 0,0 C 0.383,15.163 -13.184,28.728 -28.346,28.346 -43.51,28.728 -57.074,15.164 -56.691,0 -57.072,-15.164 -43.51,-28.727 -28.346,-28.346 -13.184,-28.728 0.381,-15.164 0,0"
           inkscape:connector-curvature="0" />
      </g>
      <g
         transform="translate(446.2813,511.8286)"
         id="g200">
        <path
           id="path202"
           style="fill:#337abe;fill-opacity:1;fill-rule:nonzero;stroke:none"
           d="M 0,0 14.174,0 C 14.555,-15.164 0.99,-28.728 -14.172,-28.346 -29.336,-28.727 -42.898,-15.164 -42.518,0 -42.9,15.164 -29.336,28.728 -14.172,28.346 0.99,28.728 14.557,15.163 14.174,0 L 0,0 C 0.193,7.574 -6.598,14.366 -14.172,14.173 -21.744,14.366 -28.539,7.573 -28.346,0 -28.539,-7.572 -21.744,-14.366 -14.172,-14.173 -6.6,-14.366 0.193,-7.573 0,0"
           inkscape:connector-curvature="0" />
      </g>
      <g
         transform="translate(432.1094,511.8286)"
         id="g204">
        <path
           id="path206"
           style="fill:#3c4694;fill-opacity:1;fill-rule:nonzero;stroke:none"
           d="M 0,0 14.172,0 C 14.365,-7.573 7.572,-14.366 0,-14.173 -7.572,-14.366 -14.367,-7.572 -14.174,0 -14.367,7.573 -7.572,14.366 0,14.173 7.574,14.366 14.365,7.574 14.172,0 L 0,0 z"
           inkscape:connector-curvature="0" />
      </g>
      <g
         transform="translate(240.771,490.5688)"
         id="g208">
        <path
           id="path210"
           style="fill:#ffffff;fill-opacity:1;fill-rule:nonzero;stroke:none"
           d="m 0,0 c 0,-11.741 -9.518,-21.26 -21.26,-21.26 -11.741,0 -21.26,9.519 -21.26,21.26 0,11.742 9.519,21.26 21.26,21.26 C -9.518,21.26 0,11.742 0,0"
           inkscape:connector-curvature="0" />
      </g>
      <g
         transform="translate(247.8569,490.5688)"
         id="g212">
        <path
           id="path214"
           style="fill:#3bade2;fill-opacity:1;fill-rule:nonzero;stroke:none"
           d="M 0,0 14.174,0 C 14.745,-22.754 -5.591,-43.091 -28.346,-42.52 -51.101,-43.089 -71.436,-22.755 -70.865,0 -71.436,22.755 -51.1,43.091 -28.345,42.52 -5.592,43.092 14.746,22.753 14.174,0 L 0,0 C 0.383,15.163 -13.182,28.728 -28.345,28.346 -43.509,28.728 -57.073,15.164 -56.691,0 -57.073,-15.164 -43.509,-28.727 -28.346,-28.346 -13.182,-28.728 0.382,-15.164 0,0"
           inkscape:connector-curvature="0" />
      </g>
      <g
         transform="translate(233.6841,490.5688)"
         id="g216">
        <path
           id="path218"
           style="fill:#337abe;fill-opacity:1;fill-rule:nonzero;stroke:none"
           d="M 0,0 14.173,0 C 14.555,-15.164 0.991,-28.728 -14.173,-28.346 -29.336,-28.727 -42.9,-15.164 -42.519,0 -42.9,15.164 -29.336,28.728 -14.172,28.346 0.991,28.728 14.556,15.163 14.173,0 L 0,0 C 0.193,7.574 -6.599,14.366 -14.173,14.173 -21.746,14.366 -28.539,7.573 -28.346,0 c -0.193,-7.572 6.6,-14.366 14.173,-14.173 C -6.6,-14.366 0.193,-7.573 0,0"
           inkscape:connector-curvature="0" />
      </g>
      <g
         transform="translate(219.5112,490.5688)"
         id="g220">
        <path
           id="path222"
           style="fill:#3c4694;fill-opacity:1;fill-rule:nonzero;stroke:none"
           d="M 0,0 14.173,0 C 14.366,-7.573 7.573,-14.366 0,-14.173 -7.573,-14.366 -14.366,-7.572 -14.173,0 -14.366,7.573 -7.573,14.366 0,14.173 7.574,14.366 14.366,7.574 14.173,0 L 0,0 z"
           inkscape:connector-curvature="0" />
      </g>
      <g
         transform="translate(325.8105,490.5688)"
         id="g224">
        <path
           id="path226"
           style="fill:#ffffff;fill-opacity:1;fill-rule:nonzero;stroke:none"
           d="M 0,0 C 0,-11.741 -9.518,-21.26 -21.261,-21.26 -33,-21.26 -42.52,-11.741 -42.52,0 c 0,11.742 9.52,21.26 21.259,21.26 C -9.518,21.26 0,11.742 0,0"
           inkscape:connector-curvature="0" />
      </g>
      <g
         transform="translate(332.8965,490.5688)"
         id="g228">
        <path
           id="path230"
           style="fill:#3bade2;fill-opacity:1;fill-rule:nonzero;stroke:none"
           d="m 0,0 14.174,0 c 0.57,-22.755 -19.768,-43.091 -42.519,-42.52 -22.758,-0.569 -43.09,19.764 -42.521,42.52 -0.57,22.756 19.765,43.09 42.521,42.52 C -5.594,43.092 14.746,22.753 14.174,0 L 0,0 C 0.383,15.163 -13.184,28.728 -28.345,28.346 -43.51,28.728 -57.073,15.164 -56.692,0 -57.073,-15.164 -43.51,-28.727 -28.345,-28.346 -13.184,-28.728 0.381,-15.164 0,0"
           inkscape:connector-curvature="0" />
      </g>
      <g
         transform="translate(318.7227,490.5688)"
         id="g232">
        <path
           id="path234"
           style="fill:#337abe;fill-opacity:1;fill-rule:nonzero;stroke:none"
           d="M 0,0 14.174,0 C 14.555,-15.164 0.99,-28.728 -14.171,-28.346 -29.336,-28.727 -42.899,-15.164 -42.518,0 -42.899,15.164 -29.336,28.728 -14.171,28.346 0.99,28.728 14.557,15.163 14.174,0 L 0,0 C 0.193,7.574 -6.598,14.365 -14.171,14.173 -21.745,14.366 -28.538,7.573 -28.345,0 -28.539,-7.572 -21.744,-14.366 -14.171,-14.173 -6.6,-14.366 0.193,-7.573 0,0"
           inkscape:connector-curvature="0" />
      </g>
      <g
         transform="translate(304.5513,490.5688)"
         id="g236">
        <path
           id="path238"
           style="fill:#3c4694;fill-opacity:1;fill-rule:nonzero;stroke:none"
           d="M 0,0 14.171,0 C 14.365,-7.573 7.572,-14.366 0,-14.173 -7.573,-14.366 -14.367,-7.572 -14.174,0 -14.367,7.573 -7.573,14.366 0,14.173 7.574,14.365 14.365,7.574 14.171,0 L 0,0 z"
           inkscape:connector-curvature="0" />
      </g>
      <g
         transform="translate(410.8496,490.5688)"
         id="g240">
        <path
           id="path242"
           style="fill:#ffffff;fill-opacity:1;fill-rule:nonzero;stroke:none"
           d="m 0,0 c 0,-11.741 -9.518,-21.26 -21.26,-21.26 -11.74,0 -21.26,9.519 -21.26,21.26 0,11.742 9.52,21.26 21.26,21.26 C -9.518,21.26 0,11.742 0,0"
           inkscape:connector-curvature="0" />
      </g>
      <g
         transform="translate(417.9355,490.5688)"
         id="g244">
        <path
           id="path246"
           style="fill:#3bade2;fill-opacity:1;fill-rule:nonzero;stroke:none"
           d="m 0,0 14.174,0 c 0.57,-22.754 -19.766,-43.091 -42.52,-42.52 -22.758,-0.568 -43.09,19.764 -42.519,42.52 -0.571,22.756 19.763,43.09 42.519,42.52 C -5.592,43.092 14.746,22.753 14.174,0 L 0,0 C 0.383,15.163 -13.184,28.728 -28.346,28.346 -43.51,28.728 -57.074,15.164 -56.691,0 -57.072,-15.164 -43.51,-28.727 -28.346,-28.346 -13.184,-28.728 0.381,-15.164 0,0"
           inkscape:connector-curvature="0" />
      </g>
      <g
         transform="translate(403.7617,490.5688)"
         id="g248">
        <path
           id="path250"
           style="fill:#337abe;fill-opacity:1;fill-rule:nonzero;stroke:none"
           d="M 0,0 14.174,0 C 14.555,-15.164 0.99,-28.728 -14.172,-28.346 -29.336,-28.727 -42.898,-15.164 -42.518,0 -42.9,15.164 -29.336,28.728 -14.172,28.346 0.99,28.728 14.557,15.163 14.174,0 L 0,0 C 0.193,7.574 -6.598,14.366 -14.172,14.173 -21.744,14.366 -28.539,7.573 -28.346,0 -28.539,-7.572 -21.744,-14.366 -14.172,-14.173 -6.6,-14.366 0.193,-7.573 0,0"
           inkscape:connector-curvature="0" />
      </g>
      <g
         transform="translate(389.5898,490.5688)"
         id="g252">
        <path
           id="path254"
           style="fill:#3c4694;fill-opacity:1;fill-rule:nonzero;stroke:none"
           d="M 0,0 14.172,0 C 14.365,-7.573 7.572,-14.366 0,-14.173 -7.572,-14.366 -14.367,-7.572 -14.174,0 -14.367,7.573 -7.572,14.366 0,14.173 7.574,14.366 14.365,7.574 14.172,0 L 0,0 z"
           inkscape:connector-curvature="0" />
      </g>
      <g
         transform="translate(198.2515,469.3091)"
         id="g256">
        <path
           id="path258"
           style="fill:#ffffff;fill-opacity:1;fill-rule:nonzero;stroke:none"
           d="m 0,0 c 0,-11.741 -9.518,-21.26 -21.26,-21.26 -11.741,0 -21.26,9.519 -21.26,21.26 0,11.742 9.519,21.26 21.26,21.26 C -9.518,21.26 0,11.742 0,0"
           inkscape:connector-curvature="0" />
      </g>
      <g
         transform="translate(205.3374,469.3091)"
         id="g260">
        <path
           id="path262"
           style="fill:#3bade2;fill-opacity:1;fill-rule:nonzero;stroke:none"
           d="M 0,0 14.174,0 C 14.745,-22.754 -5.591,-43.091 -28.346,-42.52 -51.101,-43.089 -71.436,-22.755 -70.865,0 -71.436,22.755 -51.1,43.091 -28.345,42.52 -5.592,43.092 14.746,22.753 14.174,0 L 0,0 C 0.383,15.163 -13.182,28.728 -28.345,28.346 -43.509,28.728 -57.073,15.164 -56.691,0 -57.073,-15.164 -43.509,-28.727 -28.346,-28.346 -13.182,-28.728 0.382,-15.164 0,0"
           inkscape:connector-curvature="0" />
      </g>
      <g
         transform="translate(191.1646,469.3091)"
         id="g264">
        <path
           id="path266"
           style="fill:#337abe;fill-opacity:1;fill-rule:nonzero;stroke:none"
           d="M 0,0 14.173,0 C 14.555,-15.164 0.991,-28.728 -14.173,-28.346 -29.336,-28.727 -42.9,-15.164 -42.519,0 -42.9,15.164 -29.336,28.728 -14.172,28.346 0.991,28.728 14.556,15.163 14.173,0 L 0,0 C 0.193,7.574 -6.599,14.366 -14.173,14.173 -21.746,14.366 -28.539,7.573 -28.346,0 c -0.193,-7.572 6.6,-14.366 14.173,-14.173 C -6.6,-14.366 0.193,-7.573 0,0"
           inkscape:connector-curvature="0" />
      </g>
      <g
         transform="translate(176.9917,469.3091)"
         id="g268">
        <path
           id="path270"
           style="fill:#3c4694;fill-opacity:1;fill-rule:nonzero;stroke:none"
           d="M 0,0 14.173,0 C 14.366,-7.573 7.573,-14.366 0,-14.173 -7.573,-14.366 -14.366,-7.572 -14.173,0 -14.366,7.573 -7.573,14.366 0,14.173 7.574,14.366 14.366,7.574 14.173,0 L 0,0 z"
           inkscape:connector-curvature="0" />
      </g>
      <g
         transform="translate(283.2905,469.3091)"
         id="g272">
        <path
           id="path274"
           style="fill:#ffffff;fill-opacity:1;fill-rule:nonzero;stroke:none"
           d="m 0,0 c 0,-11.741 -9.518,-21.26 -21.26,-21.26 -11.74,0 -21.26,9.519 -21.26,21.26 0,11.742 9.52,21.26 21.26,21.26 C -9.518,21.26 0,11.742 0,0"
           inkscape:connector-curvature="0" />
      </g>
      <g
         transform="translate(290.3765,469.3091)"
         id="g276">
        <path
           id="path278"
           style="fill:#3bade2;fill-opacity:1;fill-rule:nonzero;stroke:none"
           d="m 0,0 14.173,0 c 0.572,-22.754 -19.764,-43.091 -42.519,-42.52 -22.756,-0.568 -43.088,19.764 -42.519,42.52 -0.57,22.756 19.764,43.09 42.52,42.52 C -5.592,43.092 14.747,22.753 14.173,0 L 0,0 C 0.383,15.163 -13.182,28.728 -28.345,28.346 -43.509,28.728 -57.073,15.164 -56.691,0 -57.072,-15.164 -43.51,-28.727 -28.346,-28.346 -13.182,-28.728 0.382,-15.164 0,0"
           inkscape:connector-curvature="0" />
      </g>
      <g
         transform="translate(276.2036,469.3091)"
         id="g280">
        <path
           id="path282"
           style="fill:#337abe;fill-opacity:1;fill-rule:nonzero;stroke:none"
           d="M 0,0 14.173,0 C 14.555,-15.164 0.991,-28.728 -14.173,-28.346 -29.337,-28.727 -42.899,-15.164 -42.519,0 -42.9,15.164 -29.336,28.728 -14.172,28.346 0.991,28.728 14.556,15.163 14.173,0 L 0,0 C 0.193,7.574 -6.599,14.366 -14.173,14.173 -21.745,14.366 -28.539,7.573 -28.346,0 -28.539,-7.572 -21.745,-14.366 -14.173,-14.173 -6.6,-14.366 0.193,-7.573 0,0"
           inkscape:connector-curvature="0" />
      </g>
      <g
         transform="translate(262.0308,469.3091)"
         id="g284">
        <path
           id="path286"
           style="fill:#3c4694;fill-opacity:1;fill-rule:nonzero;stroke:none"
           d="M 0,0 14.173,0 C 14.366,-7.573 7.573,-14.366 0,-14.173 -7.572,-14.366 -14.366,-7.572 -14.173,0 -14.366,7.573 -7.572,14.366 0,14.173 7.574,14.366 14.366,7.574 14.173,0 L 0,0 z"
           inkscape:connector-curvature="0" />
      </g>
      <g
         transform="translate(368.3301,469.3091)"
         id="g288">
        <path
           id="path290"
           style="fill:#ffffff;fill-opacity:1;fill-rule:nonzero;stroke:none"
           d="m 0,0 c 0,-11.741 -9.518,-21.26 -21.26,-21.26 -11.74,0 -21.26,9.519 -21.26,21.26 0,11.742 9.52,21.26 21.26,21.26 C -9.518,21.26 0,11.742 0,0"
           inkscape:connector-curvature="0" />
      </g>
      <g
         transform="translate(375.416,469.3091)"
         id="g292">
        <path
           id="path294"
           style="fill:#3bade2;fill-opacity:1;fill-rule:nonzero;stroke:none"
           d="m 0,0 14.174,0 c 0.57,-22.754 -19.766,-43.091 -42.52,-42.52 -22.758,-0.568 -43.089,19.764 -42.519,42.52 -0.57,22.756 19.763,43.09 42.519,42.52 C -5.592,43.092 14.746,22.753 14.174,0 L 0,0 C 0.383,15.163 -13.184,28.728 -28.346,28.346 -43.51,28.728 -57.074,15.164 -56.691,0 -57.072,-15.164 -43.51,-28.727 -28.346,-28.346 -13.184,-28.728 0.381,-15.164 0,0"
           inkscape:connector-curvature="0" />
      </g>
      <g
         transform="translate(361.2422,469.3091)"
         id="g296">
        <path
           id="path298"
           style="fill:#337abe;fill-opacity:1;fill-rule:nonzero;stroke:none"
           d="M 0,0 14.174,0 C 14.555,-15.164 0.99,-28.728 -14.172,-28.346 -29.336,-28.727 -42.898,-15.164 -42.518,0 -42.9,15.164 -29.336,28.728 -14.172,28.346 0.99,28.728 14.557,15.163 14.174,0 L 0,0 C 0.193,7.574 -6.598,14.366 -14.172,14.173 -21.744,14.366 -28.539,7.573 -28.346,0 -28.539,-7.572 -21.744,-14.366 -14.172,-14.173 -6.6,-14.366 0.193,-7.573 0,0"
           inkscape:connector-curvature="0" />
      </g>
      <g
         transform="translate(347.0703,469.3091)"
         id="g300">
        <path
           id="path302"
           style="fill:#3c4694;fill-opacity:1;fill-rule:nonzero;stroke:none"
           d="M 0,0 14.172,0 C 14.365,-7.573 7.572,-14.366 0,-14.173 -7.572,-14.366 -14.367,-7.572 -14.174,0 -14.367,7.573 -7.572,14.366 0,14.173 7.574,14.366 14.365,7.574 14.172,0 L 0,0 z"
           inkscape:connector-curvature="0" />
      </g>
      <g
         transform="translate(453.3691,469.3091)"
         id="g304">
        <path
           id="path306"
           style="fill:#ffffff;fill-opacity:1;fill-rule:nonzero;stroke:none"
           d="m 0,0 c 0,-11.741 -9.518,-21.26 -21.26,-21.26 -11.74,0 -21.26,9.519 -21.26,21.26 0,11.742 9.52,21.26 21.26,21.26 C -9.518,21.26 0,11.742 0,0"
           inkscape:connector-curvature="0" />
      </g>
      <g
         transform="translate(460.4551,469.3091)"
         id="g308">
        <path
           id="path310"
           style="fill:#3bade2;fill-opacity:1;fill-rule:nonzero;stroke:none"
           d="m 0,0 14.174,0 c 0.57,-22.754 -19.766,-43.091 -42.52,-42.52 -22.758,-0.568 -43.09,19.764 -42.519,42.52 -0.571,22.756 19.763,43.09 42.519,42.52 C -5.592,43.092 14.746,22.753 14.174,0 L 0,0 C 0.383,15.163 -13.184,28.728 -28.346,28.346 -43.51,28.728 -57.074,15.164 -56.691,0 -57.072,-15.164 -43.51,-28.727 -28.346,-28.346 -13.184,-28.728 0.381,-15.164 0,0"
           inkscape:connector-curvature="0" />
      </g>
      <g
         transform="translate(446.2813,469.3091)"
         id="g312">
        <path
           id="path314"
           style="fill:#337abe;fill-opacity:1;fill-rule:nonzero;stroke:none"
           d="M 0,0 14.174,0 C 14.555,-15.164 0.99,-28.728 -14.172,-28.346 -29.336,-28.727 -42.898,-15.164 -42.518,0 -42.9,15.164 -29.336,28.728 -14.172,28.346 0.99,28.728 14.557,15.163 14.174,0 L 0,0 C 0.193,7.574 -6.598,14.366 -14.172,14.173 -21.744,14.366 -28.539,7.573 -28.346,0 -28.539,-7.572 -21.744,-14.366 -14.172,-14.173 -6.6,-14.366 0.193,-7.573 0,0"
           inkscape:connector-curvature="0" />
      </g>
      <g
         transform="translate(432.1094,469.3091)"
         id="g316">
        <path
           id="path318"
           style="fill:#3c4694;fill-opacity:1;fill-rule:nonzero;stroke:none"
           d="M 0,0 14.172,0 C 14.365,-7.573 7.572,-14.366 0,-14.173 -7.572,-14.366 -14.367,-7.572 -14.174,0 -14.367,7.573 -7.572,14.366 0,14.173 7.574,14.366 14.365,7.574 14.172,0 L 0,0 z"
           inkscape:connector-curvature="0" />
      </g>
      <g
         transform="translate(240.771,448.0493)"
         id="g320">
        <path
           id="path322"
           style="fill:#ffffff;fill-opacity:1;fill-rule:nonzero;stroke:none"
           d="m 0,0 c 0,-11.741 -9.518,-21.26 -21.26,-21.26 -11.741,0 -21.26,9.519 -21.26,21.26 0,11.742 9.519,21.26 21.26,21.26 C -9.518,21.26 0,11.742 0,0"
           inkscape:connector-curvature="0" />
      </g>
      <g
         transform="translate(247.8569,448.0493)"
         id="g324">
        <path
           id="path326"
           style="fill:#3bade2;fill-opacity:1;fill-rule:nonzero;stroke:none"
           d="M 0,0 14.174,0 C 14.745,-22.754 -5.591,-43.091 -28.346,-42.52 -51.101,-43.089 -71.436,-22.755 -70.865,0 -71.436,22.755 -51.1,43.091 -28.345,42.52 -5.592,43.092 14.746,22.753 14.174,0 L 0,0 C 0.383,15.163 -13.182,28.728 -28.345,28.346 -43.509,28.728 -57.073,15.164 -56.691,0 -57.073,-15.164 -43.509,-28.727 -28.346,-28.346 -13.182,-28.728 0.382,-15.164 0,0"
           inkscape:connector-curvature="0" />
      </g>
      <g
         transform="translate(233.6841,448.0493)"
         id="g328">
        <path
           id="path330"
           style="fill:#337abe;fill-opacity:1;fill-rule:nonzero;stroke:none"
           d="M 0,0 14.173,0 C 14.555,-15.164 0.991,-28.728 -14.173,-28.346 -29.336,-28.727 -42.9,-15.164 -42.519,0 -42.9,15.164 -29.336,28.728 -14.172,28.346 0.991,28.728 14.556,15.163 14.173,0 L 0,0 C 0.193,7.574 -6.599,14.366 -14.173,14.173 -21.746,14.366 -28.539,7.573 -28.346,0 c -0.193,-7.572 6.6,-14.366 14.173,-14.173 C -6.6,-14.366 0.193,-7.573 0,0"
           inkscape:connector-curvature="0" />
      </g>
      <g
         transform="translate(219.5112,448.0493)"
         id="g332">
        <path
           id="path334"
           style="fill:#3c4694;fill-opacity:1;fill-rule:nonzero;stroke:none"
           d="M 0,0 14.173,0 C 14.366,-7.573 7.573,-14.366 0,-14.173 -7.573,-14.366 -14.366,-7.572 -14.173,0 -14.366,7.573 -7.573,14.366 0,14.173 7.574,14.366 14.366,7.574 14.173,0 L 0,0 z"
           inkscape:connector-curvature="0" />
      </g>
      <g
         transform="translate(325.8105,448.0493)"
         id="g336">
        <path
           id="path338"
           style="fill:#ffffff;fill-opacity:1;fill-rule:nonzero;stroke:none"
           d="M 0,0 C 0,-11.741 -9.518,-21.26 -21.261,-21.26 -33,-21.26 -42.52,-11.741 -42.52,0 c 0,11.742 9.52,21.26 21.259,21.26 C -9.518,21.26 0,11.742 0,0"
           inkscape:connector-curvature="0" />
      </g>
      <g
         transform="translate(332.8965,448.0493)"
         id="g340">
        <path
           id="path342"
           style="fill:#3bade2;fill-opacity:1;fill-rule:nonzero;stroke:none"
           d="m 0,0 14.174,0 c 0.57,-22.755 -19.768,-43.091 -42.519,-42.52 -22.758,-0.569 -43.09,19.764 -42.521,42.52 -0.57,22.756 19.765,43.09 42.521,42.52 C -5.594,43.092 14.746,22.753 14.174,0 L 0,0 C 0.383,15.163 -13.184,28.728 -28.345,28.346 -43.51,28.728 -57.073,15.164 -56.692,0 -57.073,-15.164 -43.51,-28.727 -28.345,-28.346 -13.184,-28.728 0.381,-15.164 0,0"
           inkscape:connector-curvature="0" />
      </g>
      <g
         transform="translate(318.7227,448.0493)"
         id="g344">
        <path
           id="path346"
           style="fill:#337abe;fill-opacity:1;fill-rule:nonzero;stroke:none"
           d="M 0,0 14.174,0 C 14.555,-15.164 0.99,-28.728 -14.171,-28.346 -29.336,-28.727 -42.899,-15.164 -42.518,0 -42.899,15.164 -29.336,28.728 -14.171,28.346 0.99,28.728 14.557,15.163 14.174,0 L 0,0 C 0.193,7.574 -6.598,14.365 -14.171,14.173 -21.745,14.366 -28.538,7.573 -28.345,0 -28.539,-7.572 -21.744,-14.366 -14.171,-14.173 -6.6,-14.366 0.193,-7.573 0,0"
           inkscape:connector-curvature="0" />
      </g>
      <g
         transform="translate(304.5513,448.0493)"
         id="g348">
        <path
           id="path350"
           style="fill:#3c4694;fill-opacity:1;fill-rule:nonzero;stroke:none"
           d="M 0,0 14.171,0 C 14.365,-7.573 7.572,-14.366 0,-14.173 -7.573,-14.366 -14.367,-7.572 -14.174,0 -14.367,7.573 -7.573,14.366 0,14.173 7.574,14.365 14.365,7.574 14.171,0 L 0,0 z"
           inkscape:connector-curvature="0" />
      </g>
      <g
         transform="translate(410.8496,448.0493)"
         id="g352">
        <path
           id="path354"
           style="fill:#ffffff;fill-opacity:1;fill-rule:nonzero;stroke:none"
           d="m 0,0 c 0,-11.741 -9.518,-21.26 -21.26,-21.26 -11.74,0 -21.26,9.519 -21.26,21.26 0,11.742 9.52,21.26 21.26,21.26 C -9.518,21.26 0,11.742 0,0"
           inkscape:connector-curvature="0" />
      </g>
      <g
         transform="translate(417.9355,448.0493)"
         id="g356">
        <path
           id="path358"
           style="fill:#3bade2;fill-opacity:1;fill-rule:nonzero;stroke:none"
           d="m 0,0 14.174,0 c 0.57,-22.754 -19.766,-43.091 -42.52,-42.52 -22.758,-0.568 -43.09,19.764 -42.519,42.52 -0.571,22.756 19.763,43.09 42.519,42.52 C -5.592,43.092 14.746,22.753 14.174,0 L 0,0 C 0.383,15.163 -13.184,28.728 -28.346,28.346 -43.51,28.728 -57.074,15.164 -56.691,0 -57.072,-15.164 -43.51,-28.727 -28.346,-28.346 -13.184,-28.728 0.381,-15.164 0,0"
           inkscape:connector-curvature="0" />
      </g>
      <g
         transform="translate(403.7617,448.0493)"
         id="g360">
        <path
           id="path362"
           style="fill:#337abe;fill-opacity:1;fill-rule:nonzero;stroke:none"
           d="M 0,0 14.174,0 C 14.555,-15.164 0.99,-28.728 -14.172,-28.346 -29.336,-28.727 -42.898,-15.164 -42.518,0 -42.9,15.164 -29.336,28.728 -14.172,28.346 0.99,28.728 14.557,15.163 14.174,0 L 0,0 C 0.193,7.574 -6.598,14.366 -14.172,14.173 -21.744,14.366 -28.539,7.573 -28.346,0 -28.539,-7.572 -21.744,-14.366 -14.172,-14.173 -6.6,-14.366 0.193,-7.573 0,0"
           inkscape:connector-curvature="0" />
      </g>
      <g
         transform="translate(389.5898,448.0493)"
         id="g364">
        <path
           id="path366"
           style="fill:#3c4694;fill-opacity:1;fill-rule:nonzero;stroke:none"
           d="M 0,0 14.172,0 C 14.365,-7.573 7.572,-14.366 0,-14.173 -7.572,-14.366 -14.367,-7.572 -14.174,0 -14.367,7.573 -7.572,14.366 0,14.173 7.574,14.366 14.365,7.574 14.172,0 L 0,0 z"
           inkscape:connector-curvature="0" />
      </g>
      <g
         transform="translate(70.6924,426.7896)"
         id="g368">
        <path
           id="path370"
           style="fill:#ffffff;fill-opacity:1;fill-rule:nonzero;stroke:none"
           d="m 0,0 c 0,11.742 9.519,21.26 21.26,21.26 11.741,0 21.26,-9.518 21.26,-21.26 0,-11.741 9.518,-21.26 21.259,-21.26 11.742,0 21.26,9.519 21.26,21.26 0,11.742 9.519,21.26 21.259,21.26 11.743,0 21.261,-9.518 21.261,-21.26 0,-11.741 9.518,-21.26 21.26,-21.26 11.74,0 21.26,9.519 21.26,21.26 0,11.742 9.517,21.26 21.259,21.26 11.743,0 21.26,-9.518 21.26,-21.26 0,-11.741 9.518,-21.26 21.259,-21.26 11.742,0 21.261,9.519 21.261,21.26 0,11.742 9.518,21.26 21.26,21.26 11.742,0 21.26,-9.518 21.26,-21.26 0,-11.741 9.517,-21.26 21.259,-21.26 11.741,0 21.26,9.519 21.26,21.26 0,11.742 9.518,21.26 21.26,21.26 11.742,0 21.26,-9.518 21.26,-21.26 0,-11.741 9.517,-21.26 21.26,-21.26 11.74,0 21.259,9.519 21.259,21.26 0,11.742 9.518,21.26 21.26,21.26 11.742,0 21.26,-9.518 21.26,-21.26 0,-11.741 9.517,-21.26 21.26,-21.26 11.74,0 21.259,9.519 21.259,21.26"
           inkscape:connector-curvature="0" />
      </g>
      <g
         transform="translate(63.6064,426.7896)"
         id="g372">
        <path
           id="path374"
           style="fill:#3bade2;fill-opacity:1;fill-rule:nonzero;stroke:none"
           d="m 0,0 -14.174,0 c -0.078,16.845 10.649,32.938 26.242,39.271 15.539,6.54 34.49,2.769 46.344,-9.205 5.82,-5.972 9.88,-13.581 11.63,-21.791 1.443,-11.926 0.712,-7.383 0.708,-8.314 0.416,0.258 -0.048,-0.126 0.115,0.039 0.163,-0.162 -0.301,0.218 0.115,-0.039 -0.005,0.931 -0.734,-3.611 0.708,8.315 1.751,8.211 5.811,15.819 11.631,21.791 11.853,11.972 30.806,15.744 46.344,9.204 15.593,-6.332 26.32,-22.426 26.242,-39.271 -0.09,0.075 0.064,-0.29 0,0 -0.15,0.145 0.057,-0.044 0.083,-0.038 -0.469,-3.657 -0.02,9.392 3.165,16.316 6.333,15.594 22.428,26.321 39.271,26.242 16.844,0.079 32.939,-10.648 39.271,-26.242 3.187,-6.925 3.631,-19.973 3.168,-16.316 0.023,-0.007 0.23,0.182 0.082,0.038 -0.069,-0.285 0.09,0.077 0,0 -0.08,16.843 10.646,32.938 26.24,39.271 15.539,6.54 34.49,2.769 46.343,-9.204 5.821,-5.972 9.881,-13.581 11.633,-21.792 1.442,-11.924 0.711,-7.384 0.707,-8.314 0.414,0.256 -0.049,-0.123 0.115,0.039 0.161,-0.165 -0.3,0.219 0.116,-0.039 -0.002,0.931 -0.737,-3.612 0.707,8.313 1.75,8.21 5.81,15.82 11.631,21.792 11.853,11.974 30.802,15.745 46.343,9.205 15.594,-6.332 26.321,-22.426 26.242,-39.27 -0.089,0.074 0.065,-0.29 0,-0.001 -0.15,0.145 0.057,-0.044 0.082,-0.038 -0.468,-3.657 -0.019,9.39 3.167,16.315 6.332,15.595 22.425,26.322 39.271,26.243 16.844,0.079 32.937,-10.648 39.271,-26.242 3.186,-6.924 3.631,-19.973 3.166,-16.316 0.024,-0.007 0.231,0.182 0.083,0.038 -0.067,-0.284 0.087,0.074 0,0 l 14.173,0 c -0.054,-5.635 -3.558,-10.892 -8.756,-13.088 -5.224,-2.09 -11.417,-0.9 -15.441,3.066 -1.898,2.064 -3.199,4.558 -3.867,7.251 -0.264,1.518 -0.305,8.71 -2.451,13.62 -4.264,10.395 -14.94,17.509 -26.178,17.497 -11.24,0.012 -21.916,-7.102 -26.18,-17.498 -2.144,-4.91 -2.185,-12.101 -2.449,-13.619 -0.67,-2.693 -1.971,-5.187 -3.869,-7.251 -4.023,-3.966 -10.217,-5.156 -15.441,-3.066 -5.198,2.196 -8.702,7.452 -8.754,13.088 0.011,11.24 -7.104,21.915 -17.498,26.179 -10.383,4.314 -22.954,1.834 -30.893,-6.136 -3.859,-4.018 -6.539,-9.069 -7.748,-14.52 -0.803,-6.73 -0.576,-8.04 -1.639,-10.942 -2.197,-5.198 -7.453,-8.701 -13.088,-8.755 -5.636,0.054 -10.892,3.557 -13.087,8.755 -1.065,2.902 -0.836,4.213 -1.639,10.942 -1.211,5.452 -3.891,10.503 -7.75,14.521 -7.94,7.969 -20.51,10.449 -30.893,6.135 C 262.22,21.915 255.104,11.239 255.118,0 c -0.055,-5.635 -3.558,-10.892 -8.756,-13.087 -5.224,-2.091 -11.417,-0.901 -15.441,3.065 -1.899,2.064 -3.199,4.558 -3.868,7.251 -0.263,1.518 -0.304,8.71 -2.45,13.619 -4.264,10.396 -14.939,17.51 -26.179,17.498 -11.239,0.012 -21.914,-7.102 -26.178,-17.498 -2.146,-4.909 -2.187,-12.101 -2.451,-13.619 -0.669,-2.693 -1.969,-5.186 -3.868,-7.251 -4.024,-3.966 -10.216,-5.156 -15.441,-3.066 -5.198,2.196 -8.701,7.453 -8.755,13.088 0.012,11.24 -7.103,21.915 -17.498,26.179 -10.381,4.314 -22.954,1.834 -30.892,-6.135 -3.859,-4.018 -6.539,-9.069 -7.749,-14.52 -0.803,-6.73 -0.575,-8.041 -1.639,-10.943 -2.196,-5.198 -7.453,-8.701 -13.088,-8.755 -5.635,0.054 -10.891,3.557 -13.088,8.755 -1.063,2.902 -0.836,4.212 -1.638,10.942 -1.21,5.452 -3.89,10.502 -7.75,14.52 -7.938,7.97 -20.51,10.451 -30.891,6.136 C 7.102,21.915 -0.012,11.24 0,0"
           inkscape:connector-curvature="0" />
      </g>
      <g
         transform="translate(77.7793,426.7896)"
         id="g376">
        <path
           id="path378"
           style="fill:#337abe;fill-opacity:1;fill-rule:nonzero;stroke:none"
           d="m 0,0 -14.173,0 c -0.012,11.24 7.102,21.915 17.498,26.179 10.382,4.315 22.953,1.834 30.891,-6.136 3.86,-4.018 6.54,-9.068 7.75,-14.52 0.802,-6.73 0.575,-8.04 1.638,-10.942 2.197,-5.198 7.453,-8.701 13.088,-8.755 5.636,0.054 10.892,3.557 13.088,8.755 1.064,2.902 0.836,4.213 1.639,10.943 1.21,5.451 3.89,10.502 7.749,14.52 7.938,7.969 20.511,10.449 30.892,6.135 C 120.456,21.915 127.57,11.24 127.558,0 c 0.054,-5.635 3.557,-10.892 8.755,-13.088 5.225,-2.09 11.417,-0.9 15.441,3.066 1.899,2.065 3.2,4.558 3.869,7.251 0.263,1.518 0.304,8.71 2.45,13.619 4.264,10.396 14.939,17.51 26.178,17.498 11.24,0.012 21.915,-7.102 26.179,-17.498 2.146,-4.909 2.187,-12.101 2.45,-13.619 0.669,-2.693 1.97,-5.187 3.869,-7.251 4.023,-3.966 10.216,-5.156 15.44,-3.065 5.198,2.195 8.702,7.452 8.756,13.087 -0.013,11.239 7.102,21.915 17.496,26.179 10.383,4.314 22.954,1.834 30.893,-6.135 3.859,-4.018 6.539,-9.069 7.75,-14.521 0.803,-6.729 0.574,-8.04 1.639,-10.942 2.195,-5.198 7.451,-8.701 13.088,-8.755 5.634,0.054 10.89,3.557 13.087,8.755 1.063,2.902 0.836,4.212 1.639,10.942 1.209,5.451 3.889,10.502 7.748,14.52 7.94,7.97 20.51,10.45 30.893,6.136 10.394,-4.264 17.51,-14.939 17.498,-26.179 0.053,-5.636 3.556,-10.892 8.754,-13.088 5.224,-2.09 11.418,-0.9 15.441,3.066 1.899,2.064 3.199,4.558 3.869,7.251 0.264,1.518 0.305,8.709 2.449,13.619 4.264,10.396 14.94,17.51 26.18,17.498 11.238,0.012 21.914,-7.102 26.178,-17.497 2.146,-4.91 2.187,-12.102 2.451,-13.62 0.668,-2.693 1.969,-5.187 3.867,-7.251 4.024,-3.966 10.217,-5.156 15.442,-3.066 5.197,2.196 8.701,7.453 8.756,13.088 l 14.171,0 c 0.012,-11.241 -7.103,-21.915 -17.498,-26.18 -10.382,-4.315 -22.955,-1.834 -30.892,6.136 -3.86,4.018 -6.539,9.07 -7.75,14.522 -0.803,6.73 -0.574,8.039 -1.639,10.941 -2.195,5.198 -7.451,8.7 -13.086,8.754 -5.637,-0.054 -10.892,-3.556 -13.088,-8.754 -1.062,-2.902 -0.836,-4.212 -1.638,-10.942 -1.211,-5.452 -3.891,-10.503 -7.75,-14.521 -7.938,-7.97 -20.51,-10.451 -30.893,-6.136 -10.396,4.265 -17.51,14.941 -17.498,26.18 -0.053,5.636 -3.557,10.892 -8.754,13.087 -5.225,2.09 -11.418,0.9 -15.441,-3.065 -1.899,-2.064 -3.198,-4.558 -3.868,-7.251 -0.263,-1.517 -0.304,-8.71 -2.451,-13.62 -4.263,-10.396 -14.937,-17.51 -26.179,-17.498 -11.241,-0.012 -21.914,7.103 -26.178,17.499 -2.147,4.91 -2.188,12.102 -2.451,13.619 -0.668,2.693 -1.969,5.187 -3.867,7.251 -4.024,3.965 -10.217,5.155 -15.442,3.065 -5.197,-2.196 -8.699,-7.451 -8.754,-13.087 0.012,-11.241 -7.103,-21.915 -17.498,-26.18 -10.382,-4.315 -22.954,-1.834 -30.892,6.136 -3.86,4.018 -6.54,9.069 -7.75,14.521 -0.802,6.73 -0.575,8.04 -1.639,10.942 -2.195,5.198 -7.451,8.7 -13.087,8.754 -5.635,-0.054 -10.891,-3.556 -13.086,-8.754 -1.064,-2.902 -0.836,-4.212 -1.64,-10.942 -1.21,-5.452 -3.89,-10.503 -7.749,-14.521 -7.938,-7.97 -20.51,-10.451 -30.893,-6.136 -10.396,4.264 -17.51,14.94 -17.498,26.18 -0.054,5.635 -3.556,10.891 -8.754,13.087 -5.225,2.09 -11.417,0.9 -15.441,-3.065 -1.899,-2.065 -3.199,-4.558 -3.868,-7.251 -0.264,-1.517 -0.304,-8.709 -2.45,-13.619 -4.265,-10.396 -14.939,-17.511 -26.18,-17.499 -11.24,-0.012 -21.915,7.102 -26.179,17.498 -2.146,4.91 -2.187,12.103 -2.45,13.62 -0.669,2.693 -1.969,5.187 -3.868,7.251 C 20.171,13.987 13.979,15.177 8.754,13.087 3.556,10.891 0.054,5.635 0,0"
           inkscape:connector-curvature="0" />
      </g>
      <g
         transform="translate(91.9521,426.7896)"
         id="g380">
        <path
           id="path382"
           style="fill:#3c4694;fill-opacity:1;fill-rule:nonzero;stroke:none"
           d="m 0,0 -14.173,0 c 0.054,5.635 3.556,10.891 8.754,13.087 5.225,2.09 11.418,0.9 15.441,-3.065 1.899,-2.064 3.199,-4.558 3.868,-7.251 0.263,-1.517 0.304,-8.71 2.45,-13.62 4.264,-10.396 14.939,-17.51 26.18,-17.498 11.24,-0.012 21.915,7.103 26.179,17.499 2.146,4.91 2.186,12.102 2.45,13.619 0.669,2.693 1.969,5.186 3.868,7.251 4.024,3.965 10.216,5.155 15.441,3.065 5.198,-2.196 8.7,-7.452 8.754,-13.087 -0.012,-11.24 7.102,-21.916 17.498,-26.18 10.383,-4.315 22.956,-1.834 30.893,6.136 3.859,4.018 6.54,9.069 7.75,14.521 0.803,6.73 0.575,8.04 1.639,10.942 2.196,5.198 7.451,8.7 13.087,8.754 5.635,-0.054 10.891,-3.556 13.087,-8.754 1.063,-2.902 0.836,-4.212 1.638,-10.942 1.21,-5.452 3.89,-10.503 7.75,-14.521 7.938,-7.97 20.51,-10.451 30.892,-6.136 10.395,4.265 17.51,14.939 17.498,26.18 0.055,5.636 3.557,10.891 8.754,13.087 5.225,2.09 11.418,0.9 15.442,-3.065 1.898,-2.064 3.199,-4.558 3.867,-7.251 0.264,-1.517 0.305,-8.709 2.451,-13.619 4.264,-10.396 14.938,-17.511 26.178,-17.499 11.242,-0.012 21.916,7.102 26.179,17.498 2.147,4.91 2.188,12.103 2.452,13.62 0.67,2.693 1.968,5.187 3.867,7.251 4.023,3.965 10.217,5.155 15.441,3.065 5.197,-2.195 8.701,-7.451 8.754,-13.087 -0.012,-11.239 7.102,-21.915 17.498,-26.18 10.383,-4.315 22.955,-1.834 30.893,6.136 3.859,4.018 6.539,9.069 7.75,14.521 0.802,6.73 0.576,8.04 1.638,10.942 2.196,5.198 7.452,8.7 13.088,8.754 5.635,-0.054 10.891,-3.556 13.086,-8.754 1.065,-2.902 0.836,-4.211 1.639,-10.941 1.211,-5.452 3.891,-10.504 7.75,-14.522 7.937,-7.97 20.51,-10.451 30.892,-6.136 10.395,4.265 17.51,14.939 17.499,26.18 l 14.173,0 c 0.078,-16.847 -10.65,-32.938 -26.242,-39.271 -15.541,-6.541 -34.492,-2.768 -46.344,9.206 -5.82,5.972 -9.88,13.58 -11.63,21.791 -1.342,11.942 -0.846,7.368 -0.829,8.264 -0.127,0 0.038,-0.111 0.006,0.01 -0.031,-0.121 0.131,-0.01 0.004,-0.01 0.02,-0.895 0.516,3.677 -0.828,-8.266 -1.75,-8.211 -5.81,-15.819 -11.631,-21.79 -11.851,-11.973 -30.804,-15.746 -46.344,-9.205 -15.593,6.332 -26.32,22.428 -26.24,39.271 0.031,-0.027 -0.058,-0.008 0,0 0.061,-0.11 0.141,-0.046 0.014,0.02 0.275,3.694 -0.035,-9.383 -3.264,-16.299 -6.334,-15.593 -22.424,-26.318 -39.271,-26.24 -16.844,-0.078 -32.938,10.647 -39.27,26.242 -3.228,6.918 -3.537,19.99 -3.262,16.297 -0.126,-0.066 -0.048,-0.131 0.014,-0.02 0.057,-0.009 -0.031,-0.026 0,0 0.078,-16.848 -10.65,-32.939 -26.242,-39.271 -15.539,-6.54 -34.491,-2.768 -46.344,9.206 -5.82,5.971 -9.88,13.58 -11.631,21.79 -1.341,11.942 -0.846,7.37 -0.827,8.265 -0.128,0 0.036,-0.111 0.005,0.01 -0.032,-0.121 0.132,-0.01 0.004,-0.01 0.019,-0.896 0.515,3.678 -0.827,-8.265 -1.752,-8.211 -5.812,-15.819 -11.631,-21.79 C 145.773,-42.039 126.82,-45.812 111.281,-39.271 95.688,-32.939 84.961,-16.844 85.04,0 85.071,-0.028 84.982,-0.007 85.039,0 85.1,-0.111 85.179,-0.047 85.052,0.019 85.328,3.714 85.019,-9.36 81.791,-16.277 75.458,-31.872 59.365,-42.597 42.52,-42.519 25.674,-42.598 9.582,-31.872 3.249,-16.278 0.02,-9.361 -0.289,3.714 -0.014,0.02 -0.141,-0.046 -0.062,-0.111 0,0 0.058,-0.008 -0.031,-0.028 0,0"
           inkscape:connector-curvature="0" />
      </g>
    </g>
    <path
       id="path374-7"
       style="fill:#3bade2;fill-opacity:1;fill-rule:nonzero;stroke:none"
       d="m -416.62047,995.79494 -33.33338,0 c -0.18344,-39.61481 25.04354,-77.46115 61.71402,-92.35464 36.54348,-15.38029 81.11106,-6.51193 108.98843,21.64765 13.68705,14.04451 23.23506,31.9388 27.35058,51.24648 3.39355,28.04667 1.67443,17.3628 1.66503,19.55231 0.97832,-0.6068 -0.11289,0.2963 0.27045,-0.092 0.38333,0.3809 -0.70787,-0.5127 0.27044,0.092 -0.0118,-2.18951 -1.72616,8.49196 1.66503,-19.55466 4.11787,-19.31003 13.66588,-37.20197 27.35293,-51.24648 27.87502,-28.15488 72.44731,-37.02559 108.98844,-21.6453 36.670486,14.89114 61.897456,52.73983 61.714026,92.35464 -0.21166,-0.1763 0.15051,0.682 0,0 -0.35276,-0.341 0.13405,0.1035 0.19519,0.089 -1.10296,8.60026 -0.047,-22.08739 7.44322,-38.37075 14.89349,-36.67283 52.74453,-61.89981 92.35467,-61.71402 39.61249,-0.18579 77.463534,25.04119 92.354664,61.71402 7.49496,16.28571 8.53912,46.97101 7.45027,38.37075 0.0541,0.016 0.5409,-0.428 0.19284,-0.089 -0.16226,0.6703 0.21166,-0.181 0,0 -0.18813,-39.61011 25.03649,-77.46115 61.70932,-92.35464 36.54349,-15.38029 81.11107,-6.51193 108.98609,21.6453 13.6894,14.04451 23.23741,31.9388 27.35764,51.24883 3.39119,28.04197 1.67207,17.36515 1.66267,19.55231 0.97361,-0.6021 -0.11524,0.2892 0.27044,-0.092 0.37863,0.388 -0.70551,-0.5151 0.27281,0.092 -0.005,-2.18951 -1.73323,8.49436 1.66267,-19.54996 4.11552,-19.30768 13.66353,-37.20432 27.35293,-51.24883 27.87502,-28.15958 72.4379,-37.02794 108.98609,-21.64765 36.67283,14.89114 61.89981,52.73983 61.71402,92.35234 -0.20931,-0.174 0.15289,0.682 0,0 -0.35276,-0.341 0.13409,0.1035 0.19279,0.089 -1.10056,8.60016 -0.045,-22.08274 7.448,-38.36845 14.8911,-36.67518 52.7374,-61.90216 92.3546,-61.71637 39.6125,-0.18579 77.4589,25.04119 92.3547,61.71402 7.4926,16.28336 8.5391,46.97096 7.4456,38.3708 0.056,0.016 0.5432,-0.428 0.1952,-0.089 -0.1576,0.6679 0.2046,-0.174 0,0 l 33.331,0 c -0.127,13.25196 -8.3674,25.61496 -20.5917,30.77936 -12.2854,4.9151 -26.8497,2.1165 -36.313,-7.2104 -4.4636,-4.854 -7.5232,-10.7192 -9.0942,-17.0524 -0.6208,-3.56986 -0.7172,-20.48349 -5.7641,-32.03047 -10.0277,-24.4462 -35.1348,-41.17638 -61.5635,-41.14816 -26.4334,-0.0282 -51.5404,16.70196 -61.5682,41.15052 -5.0421,11.54698 -5.1385,28.45825 -5.7594,32.02811 -1.5756,6.3332 -4.6352,12.1984 -9.0988,17.0524 -9.461,9.3269 -24.02758,12.1255 -36.313,7.2104 -12.22428,-5.1644 -20.46473,-17.5251 -20.58702,-30.77936 0.0259,-26.43343 -16.70667,-51.53812 -41.15052,-61.56588 -24.41798,-10.14535 -53.98154,-4.31307 -72.6519,14.4302 -9.07532,9.44924 -15.37794,21.32781 -18.22118,34.14707 -1.88844,15.82711 -1.3546,18.90787 -3.85448,25.73257 -5.16675,12.2243 -17.52742,20.4624 -30.77941,20.5894 -13.25433,-0.127 -25.61501,-8.3651 -30.77705,-20.5894 -2.50459,-6.8247 -1.96604,-9.90776 -3.85448,-25.73257 -2.84794,-12.82166 -9.15057,-24.70023 -18.22588,-34.14947 -18.67271,-18.74092 -48.23392,-24.5732 -72.6519,-14.42785 -24.44385,10.02776 -41.17874,35.1348 -41.14582,61.56583 -0.12934,13.25196 -8.36744,25.61496 -20.59172,30.77706 -12.28542,4.9174 -26.84967,2.1189 -36.31302,-7.2081 -4.46593,-4.8539 -7.52316,-10.7191 -9.09647,-17.0523 -0.6185,-3.56986 -0.71492,-20.48353 -5.76173,-32.02816 -10.02776,-24.44856 -35.132454,-41.17874 -61.565864,-41.15052 -26.431059,-0.0282 -51.5357395,16.70196 -61.56351,41.15052 -5.0468,11.54463 -5.14323,28.4583 -5.76408,32.02816 -1.57331,6.3332 -4.63055,12.196 -9.09648,17.0523 -9.46335,9.327 -24.02524,12.1255 -36.31302,7.2104 -12.22428,-5.1644 -20.462383,-17.5274 -20.589373,-30.77936 0.0282,-26.43338 -16.704323,-51.53807 -41.150523,-61.56583 -24.41328,-10.14535 -53.98154,-4.31307 -72.64955,14.42785 -9.07531,9.44924 -15.37794,21.32781 -18.22353,34.14707 -1.88844,15.82711 -1.35224,18.91017 -3.85448,25.73487 -5.16439,12.2243 -17.52742,20.4624 -30.7794,20.5894 -13.25199,-0.127 -25.61266,-8.3651 -30.77941,-20.5894 -2.49988,-6.8247 -1.96604,-9.90536 -3.85213,-25.73252 -2.84559,-12.82161 -9.14821,-24.69783 -18.22588,-34.14707 -18.66801,-18.74327 -48.23392,-24.5779 -72.6472,-14.4302 -24.44855,10.02776 -41.17873,35.13245 -41.15051,61.56583"
       inkscape:connector-curvature="0" />
    <path
       id="path378-4"
       style="fill:#337abe;fill-opacity:1;fill-rule:nonzero;stroke:none"
       d="m -383.28968,995.79494 -33.33103,0 c -0.0282,-26.43338 16.70196,-51.53807 41.15052,-61.56583 24.41563,-10.1477 53.97918,-4.31307 72.64719,14.4302 9.07767,9.44924 15.3803,21.32546 18.22589,34.14707 1.88608,15.82716 1.35224,18.90782 3.85213,25.73252 5.16674,12.2243 17.52742,20.4624 30.7794,20.5894 13.25433,-0.127 25.61501,-8.3651 30.7794,-20.5894 2.50224,-6.8247 1.96605,-9.90776 3.85448,-25.73487 2.84559,-12.81926 9.14822,-24.69783 18.22354,-34.14707 18.668,-18.74092 48.23627,-24.5732 72.64955,-14.42785 24.44855,10.02776 41.178743,35.13245 41.150513,61.56583 0.127,13.25196 8.365103,25.61496 20.589373,30.77936 12.28778,4.9151 26.84967,2.1166 36.31302,-7.2104 4.46593,-4.8563 7.52553,-10.7191 9.09883,-17.0523 0.61851,-3.56986 0.71493,-20.48353 5.76173,-32.02816 10.0277705,-24.44856 35.132451,-41.17874 61.56351,-41.15052 26.43342,-0.0282 51.538104,16.70196 61.565864,41.15052 5.04681,11.54463 5.14323,28.4583 5.76174,32.02816 1.5733,6.3332 4.63289,12.1984 9.09882,17.0523 9.461,9.327 24.02524,12.1255 36.31066,7.2081 12.22428,-5.1621 20.46473,-17.5251 20.59172,-30.77706 -0.0306,-26.43103 16.70197,-51.53807 41.14582,-61.56583 24.41798,-10.14535 53.98154,-4.31307 72.6519,14.42785 9.07532,9.44924 15.37794,21.32781 18.22589,34.14942 1.88843,15.82476 1.34989,18.90782 3.85448,25.73252 5.16204,12.2243 17.52271,20.4624 30.7794,20.5894 13.24963,-0.127 25.61031,-8.3651 30.77705,-20.5894 2.49989,-6.8247 1.96604,-9.90536 3.85448,-25.73252 2.84324,-12.81926 9.14587,-24.69783 18.22118,-34.14707 18.67271,-18.74327 48.23392,-24.57555 72.6519,-14.4302 24.44386,10.02776 41.17874,35.13245 41.15052,61.56583 0.12465,13.25436 8.36274,25.61496 20.58702,30.77936 12.28542,4.9151 26.85204,2.1166 36.31304,-7.2104 4.4659,-4.8539 7.5232,-10.7191 9.0988,-17.0523 0.6209,-3.56986 0.7173,-20.48118 5.7594,-32.02816 10.0278,-24.44856 35.1348,-41.17874 61.5682,-41.15052 26.4287,-0.0282 51.5357,16.70196 61.5635,41.14817 5.0468,11.54698 5.1432,28.46065 5.7641,32.03051 1.5709,6.3332 4.6305,12.1984 9.0941,17.0523 9.4634,9.327 24.0276,12.1255 36.3154,7.2104 12.2219,-5.1644 20.4624,-17.5274 20.5917,-30.77936 l 33.3263,0 c 0.028,26.43576 -16.7043,51.53816 -41.1505,61.56826 -24.4156,10.1477 -53.9839,4.3131 -72.6495,-14.4302 -9.0777,-9.4493 -15.378,-21.3302 -18.2259,-34.1518 -1.8885,-15.82711 -1.3499,-18.90552 -3.8545,-25.73024 -5.162,-12.22427 -17.5227,-20.46002 -30.7747,-20.58701 -13.2567,0.12699 -25.615,8.36274 -30.7794,20.58701 -2.4975,6.82472 -1.966,9.90548 -3.8521,25.73254 -2.848,12.8216 -9.1506,24.7002 -18.2259,34.1495 -18.668,18.7433 -48.23393,24.5779 -72.65192,14.4302 -24.44855,-10.0301 -41.17874,-35.1372 -41.15051,-61.56826 -0.12465,-13.2543 -8.3651,-25.61498 -20.58702,-30.77702 -12.28778,-4.91511 -26.85202,-2.11655 -36.31302,7.20804 -4.46593,4.85397 -7.52082,10.71918 -9.09648,17.05238 -0.6185,3.56757 -0.71492,20.48346 -5.76408,32.03046 -10.02541,24.4486 -35.12775,41.1788 -61.56586,41.1506 -26.43577,0.028 -51.53575,-16.7043 -61.56351,-41.1529 -5.04916,-11.547 -5.14558,-28.46059 -5.76409,-32.02816 -1.57095,-6.3332 -4.63055,-12.19841 -9.09412,-17.05238 -9.46335,-9.32459 -24.0276,-12.12315 -36.31537,-7.20804 -12.22193,5.16439 -20.45768,17.52272 -20.58702,30.77702 0.0282,26.43576 -16.70432,51.53816 -41.15052,61.56826 -24.41563,10.1477 -53.98154,4.3131 -72.64954,-14.4302 -9.077674,-9.4493 -15.380294,-21.3279 -18.225884,-34.1495 -1.88609,-15.82706 -1.35225,-18.90782 -3.85448,-25.73254 -5.16205,-12.22427 -17.52272,-20.46002 -30.77706,-20.58701 -13.25198,0.12699 -25.612649,8.36274 -30.774699,20.58701 -2.50223,6.82472 -1.96604,9.90548 -3.85683,25.73254 -2.84559,12.8216 -9.1482205,24.7002 -18.2235305,34.1495 -18.6680105,18.7433 -48.2339205,24.5779 -72.6519005,14.4302 -24.448563,-10.0278 -41.178746,-35.1349 -41.150526,-61.56826 -0.127,-13.25195 -8.36274,-25.61263 -20.58702,-30.77702 -12.28777,-4.91511 -26.84967,-2.11655 -36.31302,7.20804 -4.46593,4.85632 -7.52317,10.71918 -9.09648,17.05238 -0.62085,3.56757 -0.71492,20.48116 -5.76173,32.02816 -10.03011,24.4486 -35.13245,41.1811 -61.56821,41.1529 -26.43341,0.028 -51.5381,-16.702 -61.56586,-41.1506 -5.04681,-11.547 -5.14323,-28.46289 -5.76173,-32.03046 -1.57331,-6.3332 -4.63055,-12.19841 -9.09648,-17.05238 -9.46335,-9.32459 -24.02524,-12.12315 -36.31302,-7.20804 -12.22427,5.16439 -20.46002,17.52507 -20.58701,30.77702"
       inkscape:connector-curvature="0" />
    <path
       id="path382-4"
       style="fill:#3c4694;fill-opacity:1;fill-rule:nonzero;stroke:none"
       d="m -349.95912,995.79494 -33.33103,0 c 0.12699,-13.25195 8.36274,-25.61263 20.58702,-30.77702 12.28777,-4.91511 26.85201,-2.11655 36.31301,7.20804 4.46593,4.85397 7.52317,10.71918 9.09648,17.05238 0.6185,3.56757 0.71493,20.48346 5.76173,32.03046 10.02777,24.4486 35.13245,41.1788 61.56821,41.1506 26.43342,0.028 51.5381,-16.7043 61.56587,-41.1529 5.0468,-11.547 5.14087,-28.46059 5.76173,-32.02816 1.5733,-6.3332 4.63055,-12.19606 9.09648,-17.05238 9.46335,-9.32459 24.02524,-12.12315 36.31301,-7.20804 12.22428,5.16439 20.46003,17.52507 20.58702,30.77702 -0.0282,26.43336 16.701973,51.54046 41.150526,61.56826 24.41798,10.1477 53.98625,4.3131 72.6519005,-14.4302 9.07532,-9.4493 15.3803005,-21.3279 18.2258905,-34.1495 1.88843,-15.82706 1.35224,-18.90782 3.85448,-25.73254 5.16439,-12.22427 17.522719,-20.46002 30.777049,-20.58701 13.25198,0.12699 25.61266,8.36274 30.77705,20.58701 2.49989,6.82472 1.96604,9.90548 3.85213,25.73254 2.84559,12.8216 9.14822,24.7002 18.225884,34.1495 18.668,18.7433 48.23391,24.5779 72.64954,14.4302 24.44621,-10.0301 41.17874,-35.1325 41.15052,-61.56826 0.12935,-13.2543 8.3651,-25.61263 20.58702,-30.77702 12.28777,-4.91511 26.85202,-2.11655 36.31537,7.20804 4.46358,4.85397 7.52317,10.71918 9.09413,17.05238 0.62085,3.56757 0.71727,20.48116 5.76408,32.02816 10.02776,24.4486 35.1301,41.1811 61.56351,41.1529 26.43811,0.028 51.54045,-16.702 61.56586,-41.1506 5.04916,-11.547 5.14558,-28.46289 5.76644,-32.03046 1.57565,-6.3332 4.62819,-12.19841 9.09412,-17.05238 9.461,-9.32459 24.0276,-12.12315 36.31302,-7.20804 12.22193,5.16204 20.46238,17.52272 20.58702,30.77702 -0.0282,26.43106 16.70196,51.53816 41.15052,61.56826 24.41798,10.1477 53.98388,4.3131 72.65188,-14.4302 9.0753,-9.4493 15.378,-21.3279 18.2259,-34.1495 1.8861,-15.82706 1.3546,-18.90782 3.8521,-25.73254 5.1644,-12.22427 17.5251,-20.46002 30.7794,-20.58701 13.252,0.12699 25.6127,8.36274 30.7747,20.58701 2.5046,6.82472 1.9661,9.90313 3.8545,25.73024 2.848,12.8216 9.1506,24.7025 18.2259,34.1518 18.6657,18.7433 48.2339,24.5779 72.6496,14.4302 24.4462,-10.0301 41.1787,-35.1325 41.1528,-61.56826 l 33.331,0 c 0.1835,39.61956 -25.0458,77.46126 -61.714,92.35466 -36.5482,15.3827 -81.1157,6.5096 -108.9884,-21.65 -13.6871,-14.0445 -23.2351,-31.9364 -27.3506,-51.2465 -3.156,-28.08426 -1.9896,-17.32746 -1.9496,-19.43456 -0.2986,0 0.089,0.261 0.014,-0.023 -0.073,0.2845 0.3081,0.023 0.01,0.023 0.047,2.1047 1.2135,-8.64735 -1.9472,19.43926 -4.1155,19.3101 -13.6635,37.202 -27.3529,51.2442 -27.8703,28.1572 -72.44262,37.0303 -108.98846,21.6476 -36.67048,-14.8911 -61.89745,-52.7445 -61.70932,-92.35466 0.0729,0.064 -0.1364,0.019 0,0 0.14346,0.2587 0.3316,0.1082 0.0329,-0.047 0.64672,-8.68725 -0.0823,22.06626 -7.67604,38.33076 -14.89584,36.6705 -52.73513,61.8928 -92.35467,61.7094 -39.61249,0.1834 -77.46118,-25.0389 -92.35232,-61.7141 -7.59137,-16.2692 -8.31806,-47.01096 -7.67133,-38.32606 -0.29632,0.1552 -0.11289,0.3081 0.0329,0.047 0.13405,0.021 -0.0729,0.061 0,0 0.18344,39.62186 -25.04589,77.46356 -61.71402,92.35466 -36.54348,15.3803 -81.1134,6.5096 -108.988424,-21.65 -13.68706,-14.0421 -23.23507,-31.9364 -27.35294,-51.2441 -3.15367,-28.08431 -1.98956,-17.33226 -1.94488,-19.43696 -0.30102,0 0.0847,0.261 0.0118,-0.023 -0.0753,0.2845 0.31043,0.023 0.009,0.023 0.0447,2.1071 1.21114,-8.6497 -1.94488,19.43696 -4.12023,19.31 -13.66824,37.202 -27.352939,51.2441 -27.8726705,28.1596 -72.444951,37.0327 -108.988444,21.65 -36.670473,-14.8911 -61.897453,-52.7422 -61.711663,-92.35466 0.0729,0.066 -0.1364,0.017 -0.002,0 0.14346,0.2611 0.32925,0.1106 0.0306,-0.045 0.64907,-8.6896 -0.0776,22.05686 -7.66898,38.32376 -14.89349,36.6752 -52.73983,61.8975 -92.35468,61.714 -39.61719,0.1858 -77.46118,-25.0388 -92.35467,-61.7117 -7.59372,-16.2669 -8.3204,-47.01566 -7.67368,-38.32836 -0.29867,0.1552 -0.11288,0.3081 0.0329,0.047 0.1364,0.019 -0.0729,0.066 0,0"
       inkscape:connector-curvature="0" />
  </g>
</svg>
