<?xml version="1.0" encoding="UTF-8" standalone="no"?>
<!-- Created with Inkscape (http://www.inkscape.org/) -->

<svg
   xmlns:dc="http://purl.org/dc/elements/1.1/"
   xmlns:cc="http://creativecommons.org/ns#"
   xmlns:rdf="http://www.w3.org/1999/02/22-rdf-syntax-ns#"
   xmlns:svg="http://www.w3.org/2000/svg"
   xmlns="http://www.w3.org/2000/svg"
   xmlns:xlink="http://www.w3.org/1999/xlink"
   xmlns:sodipodi="http://sodipodi.sourceforge.net/DTD/sodipodi-0.dtd"
   xmlns:inkscape="http://www.inkscape.org/namespaces/inkscape"
   width="500"
   height="500"
   id="svg8333"
   version="1.1"
   inkscape:version="0.48.4 r9939"
   sodipodi:docname="stone.svg">
  <defs
     id="defs8335" />
  <sodipodi:namedview
     id="base"
     pagecolor="#ffffff"
     bordercolor="#666666"
     borderopacity="1.0"
     inkscape:pageopacity="0.0"
     inkscape:pageshadow="2"
     inkscape:zoom="1.0074671"
     inkscape:cx="48.848547"
     inkscape:cy="235.4103"
     inkscape:document-units="px"
     inkscape:current-layer="layer1"
     showgrid="false"
     inkscape:showpageshadow="false"
     borderlayer="true"
     showguides="true"
     inkscape:guide-bbox="true"
     inkscape:window-width="1920"
     inkscape:window-height="1056"
     inkscape:window-x="0"
     inkscape:window-y="24"
     inkscape:window-maximized="1" />
  <metadata
     id="metadata8338">
    <rdf:RDF>
      <cc:Work
         rdf:about="">
        <dc:format>image/svg+xml</dc:format>
        <dc:type
           rdf:resource="http://purl.org/dc/dcmitype/StillImage" />
        <dc:title></dc:title>
      </cc:Work>
    </rdf:RDF>
  </metadata>
  <g
     inkscape:label="Layer 1"
     inkscape:groupmode="layer"
     id="layer1"
     transform="translate(0,-552.36218)">
    <rect
       style="fill:#808080;fill-opacity:1;stroke:none"
       id="rect8660"
       width="519.01636"
       height="526.08746"
       x="-11.313708"
       y="-10.531096"
       transform="translate(0,552.36218)" />
    <g
       style="fill:#696969"
       id="g8624"
       transform="matrix(4.1483265,0,0,-4.1056537,74.438254,888.93644)">
      <path
         inkscape:connector-curvature="0"
         d="m 0,0 11.586,-33.489 3.917,-2.279 3.382,-12.475 27.61,-6.586 0.775,0 12.112,3.983 16.565,4.561 20.655,28.886 L 76.747,9.988 63.794,17.738 57.966,20.621 52.53,22.594 33.415,37.355 0,0 z"
         style="fill:#696969;fill-opacity:1;fill-rule:nonzero;stroke:none"
         id="path8626" />
    </g>
    <g
       style="fill:#696969"
       transform="matrix(5.7961861,-1.6665929,-1.6494493,-5.736562,218.21711,713.75734)"
       id="g8652">
      <path
         d="M 23.8125,-40.90625 3.875,-27.5625 4,-4.9375 4.03125,-4.875 0,0 -8.40625,27.53125 24.6875,26.8125 48.15625,14.40625 44.75,-0.34375 55.5,-16.03125 44.90625,-31.8125 23.8125,-40.90625 z"
         inkscape:href="#path734"
         id="path8654"
         style="fill:#696969;fill-opacity:1;fill-rule:nonzero;stroke:none"
         xlink:href="#path734"
         inkscape:original="M 23.8125 -40.90625 L 3.875 -27.5625 L 4 -4.9375 L 4.03125 -4.875 L 0 0 L -8.40625 27.53125 L 24.6875 26.8125 L 48.15625 14.40625 L 44.75 -0.34375 L 55.5 -16.03125 L 44.90625 -31.8125 L 23.8125 -40.90625 z "
         inkscape:radius="0"
         sodipodi:type="inkscape:offset" />
      <path
         d="m 24.40625,-34.625 -14.9375,10.03125 0.09375,19.0625 a 5.5625264,5.5625264 0 0 1 -1.25,4.1875 L 5,2.65625 -0.84375,21.8125 23.28125,21.28125 41.78125,11.5 39.34375,0.90625 A 5.5625264,5.5625264 0 0 1 40.15625,-3.5 l 8.625,-12.5625 -7.59375,-11.3125 -16.78125,-7.25 z"
         id="path8656"
         style="fill:#696969;fill-opacity:1;fill-rule:nonzero;stroke:none"
         inkscape:original="M 23.8125 -40.90625 L 3.875 -27.5625 L 4 -4.9375 L 4.03125 -4.875 L 0 0 L -8.40625 27.53125 L 24.6875 26.8125 L 48.15625 14.40625 L 44.75 -0.34375 L 55.5 -16.03125 L 44.90625 -31.8125 L 23.8125 -40.90625 z "
         inkscape:radius="-5.5619702"
         sodipodi:type="inkscape:offset" />
    </g>
    <g
       style="fill:#696969"
       transform="matrix(4.9956919,-1.9448557,-1.9248493,-4.9443025,-4.4441442,665.61712)"
       id="g8636">
      <path
         id="path8638"
         style="fill:#696969;fill-opacity:1;fill-rule:nonzero;stroke:none"
         d="m 0,0 -4.326,-24.191 -10.016,1.654 -6.64,-16.745 16.093,-27.874 11.033,3.927 13.135,17.622 14.897,5.166 19.091,15.761 -8.627,7.324 5.231,7.936 L 30.292,2.594 14.113,10.165 0,0 z"
         inkscape:connector-curvature="0" />
    </g>
    <g
       transform="matrix(3.1910203,0,0,-3.1581951,120.67709,897.21439)"
       id="g8620"
       style="fill:#808080">
      <path
         id="path8622"
         style="fill:#808080;fill-opacity:1;fill-rule:nonzero;stroke:none"
         d="m 0,0 11.586,-33.489 3.917,-2.279 3.382,-12.475 27.61,-6.586 0.775,0 12.112,3.983 16.565,4.561 20.655,28.886 L 76.747,9.988 63.794,17.738 57.966,20.621 52.53,22.594 33.415,37.355 0,0 z"
         inkscape:connector-curvature="0" />
    </g>
    <g
       id="g8646"
       transform="matrix(4.2934712,-1.2345134,-1.2218141,-4.2493052,256.46117,713.52926)"
       style="fill:#808080">
      <path
         sodipodi:type="inkscape:offset"
         inkscape:radius="0"
         inkscape:original="M 23.8125 -40.90625 L 3.875 -27.5625 L 4 -4.9375 L 4.03125 -4.875 L 0 0 L -8.40625 27.53125 L 24.6875 26.8125 L 48.15625 14.40625 L 44.75 -0.34375 L 55.5 -16.03125 L 44.90625 -31.8125 L 23.8125 -40.90625 z "
         xlink:href="#path734"
         style="fill:#808080;fill-opacity:1;fill-rule:nonzero;stroke:none"
         id="path8648"
         inkscape:href="#path734"
         d="M 23.8125,-40.90625 3.875,-27.5625 4,-4.9375 4.03125,-4.875 0,0 -8.40625,27.53125 24.6875,26.8125 48.15625,14.40625 44.75,-0.34375 55.5,-16.03125 44.90625,-31.8125 23.8125,-40.90625 z" />
      <path
         sodipodi:type="inkscape:offset"
         inkscape:radius="-5.5619702"
         inkscape:original="M 23.8125 -40.90625 L 3.875 -27.5625 L 4 -4.9375 L 4.03125 -4.875 L 0 0 L -8.40625 27.53125 L 24.6875 26.8125 L 48.15625 14.40625 L 44.75 -0.34375 L 55.5 -16.03125 L 44.90625 -31.8125 L 23.8125 -40.90625 z "
         style="fill:#808080;fill-opacity:1;fill-rule:nonzero;stroke:none"
         id="path8650"
         d="m 24.40625,-34.625 -14.9375,10.03125 0.09375,19.0625 a 5.5625264,5.5625264 0 0 1 -1.25,4.1875 L 5,2.65625 -0.84375,21.8125 23.28125,21.28125 41.78125,11.5 39.34375,0.90625 A 5.5625264,5.5625264 0 0 1 40.15625,-3.5 l 8.625,-12.5625 -7.59375,-11.3125 -16.78125,-7.25 z" />
    </g>
    <g
       id="g8632"
       transform="matrix(4.1630767,-1.6207129,-1.604041,-4.120252,12.600676,691.76305)"
       style="fill:#808080">
      <path
         inkscape:connector-curvature="0"
         d="m 0,0 -4.326,-24.191 -10.016,1.654 -6.64,-16.745 16.093,-27.874 11.033,3.927 13.135,17.622 14.897,5.166 19.091,15.761 -8.627,7.324 5.231,7.936 L 30.292,2.594 14.113,10.165 0,0 z"
         style="fill:#808080;fill-opacity:1;fill-rule:nonzero;stroke:none"
         id="path8634" />
    </g>
    <g
       style="fill:#708090"
       transform="matrix(2.9736261,-1.1576522,-1.1457437,-2.9430372,36.416948,731.1674)"
       id="g8628">
      <path
         id="path8630"
         style="fill:#708090;fill-opacity:1;fill-rule:nonzero;stroke:none"
         d="m 0,0 -4.326,-24.191 -10.016,1.654 -6.64,-16.745 16.093,-27.874 11.033,3.927 13.135,17.622 14.897,5.166 19.091,15.761 -8.627,7.324 5.231,7.936 L 30.292,2.594 14.113,10.165 0,0 z"
         inkscape:connector-curvature="0" />
    </g>
    <g
       id="g720"
       transform="matrix(2.1240186,-0.82689435,-0.81838827,-2.1021694,55.792165,756.95796)"
       style="fill:#c0c0c0">
      <path
         inkscape:connector-curvature="0"
         d="m 0,0 -4.326,-24.191 -10.016,1.654 -6.64,-16.745 16.093,-27.874 11.033,3.927 13.135,17.622 14.897,5.166 19.091,15.761 -8.627,7.324 5.231,7.936 L 30.292,2.594 14.113,10.165 0,0 z"
         style="fill:#c0c0c0;fill-opacity:1;fill-rule:nonzero;stroke:none"
         id="path722" />
    </g>
    <g
       id="g724"
       transform="matrix(2.1240186,-0.82689435,-0.81838827,-2.1021694,89.948004,763.38676)"
       style="fill:#d3d3d3">
      <path
         inkscape:connector-curvature="0"
         d="m 0,0 -5.234,-29.272 2.812,3.776 16.6,5.758 4.068,3.359 -5.287,4.49 4.08,6.192 -6.418,3.939 L 2.703,1.948 0,0 z m -20.373,-35.422 3.449,-8.218 1.33,0.472 8.285,11.117 -11.008,1.816 -2.056,-5.187 z"
         style="fill:#d3d3d3;fill-opacity:1;fill-rule:nonzero;stroke:none"
         id="path726" />
    </g>
    <g
       id="g728"
       transform="matrix(2.2793003,0,0,-2.2558537,164.71409,905.09813)"
       style="fill:#708090">
      <path
         inkscape:connector-curvature="0"
         d="m 0,0 11.586,-33.489 3.917,-2.279 3.382,-12.475 27.61,-6.586 0.775,0 12.112,3.983 16.565,4.561 20.655,28.886 L 76.747,9.988 63.794,17.738 57.966,20.621 52.53,22.594 33.415,37.355 0,0 z"
         style="fill:#708090;fill-opacity:1;fill-rule:nonzero;stroke:none"
         id="path730" />
    </g>
    <g
       style="fill:#708090"
       transform="matrix(3.066765,-0.88179522,-0.87272438,-3.0352179,287.68081,713.34305)"
       id="g8640">
      <path
         d="M 23.8125,-40.90625 3.875,-27.5625 4,-4.9375 4.03125,-4.875 0,0 -8.40625,27.53125 24.6875,26.8125 48.15625,14.40625 44.75,-0.34375 55.5,-16.03125 44.90625,-31.8125 23.8125,-40.90625 z"
         inkscape:href="#path734"
         id="path8642"
         style="fill:#708090;fill-opacity:1;fill-rule:nonzero;stroke:none"
         xlink:href="#path734"
         inkscape:original="M 23.8125 -40.90625 L 3.875 -27.5625 L 4 -4.9375 L 4.03125 -4.875 L 0 0 L -8.40625 27.53125 L 24.6875 26.8125 L 48.15625 14.40625 L 44.75 -0.34375 L 55.5 -16.03125 L 44.90625 -31.8125 L 23.8125 -40.90625 z "
         inkscape:radius="0"
         sodipodi:type="inkscape:offset" />
      <path
         d="m 24.40625,-34.625 -14.9375,10.03125 0.09375,19.0625 a 5.5625264,5.5625264 0 0 1 -1.25,4.1875 L 5,2.65625 -0.84375,21.8125 23.28125,21.28125 41.78125,11.5 39.34375,0.90625 A 5.5625264,5.5625264 0 0 1 40.15625,-3.5 l 8.625,-12.5625 -7.59375,-11.3125 -16.78125,-7.25 z"
         id="path8644"
         style="fill:#708090;fill-opacity:1;fill-rule:nonzero;stroke:none"
         inkscape:original="M 23.8125 -40.90625 L 3.875 -27.5625 L 4 -4.9375 L 4.03125 -4.875 L 0 0 L -8.40625 27.53125 L 24.6875 26.8125 L 48.15625 14.40625 L 44.75 -0.34375 L 55.5 -16.03125 L 44.90625 -31.8125 L 23.8125 -40.90625 z "
         inkscape:radius="-5.5619702"
         sodipodi:type="inkscape:offset" />
    </g>
    <g
       id="g732"
       transform="matrix(2.1905465,-0.62985374,-0.62337458,-2.1680128,309.98053,713.21004)"
       style="fill:#c0c0c0">
      <path
         sodipodi:type="inkscape:offset"
         inkscape:radius="0"
         inkscape:original="M 23.8125 -40.90625 L 3.875 -27.5625 L 4 -4.9375 L 4.03125 -4.875 L 0 0 L -8.40625 27.53125 L 24.6875 26.8125 L 48.15625 14.40625 L 44.75 -0.34375 L 55.5 -16.03125 L 44.90625 -31.8125 L 23.8125 -40.90625 z "
         xlink:href="#path734"
         style="fill:#c0c0c0;fill-opacity:1;fill-rule:nonzero;stroke:none"
         id="path8610"
         inkscape:href="#path734"
         d="M 23.8125,-40.90625 3.875,-27.5625 4,-4.9375 4.03125,-4.875 0,0 -8.40625,27.53125 24.6875,26.8125 48.15625,14.40625 44.75,-0.34375 55.5,-16.03125 44.90625,-31.8125 23.8125,-40.90625 z" />
      <path
         sodipodi:type="inkscape:offset"
         inkscape:radius="-5.5619702"
         inkscape:original="M 23.8125 -40.90625 L 3.875 -27.5625 L 4 -4.9375 L 4.03125 -4.875 L 0 0 L -8.40625 27.53125 L 24.6875 26.8125 L 48.15625 14.40625 L 44.75 -0.34375 L 55.5 -16.03125 L 44.90625 -31.8125 L 23.8125 -40.90625 z "
         style="fill:#c0c0c0;fill-opacity:1;fill-rule:nonzero;stroke:none"
         id="path8612"
         d="m 24.40625,-34.625 -14.9375,10.03125 0.09375,19.0625 a 5.5625264,5.5625264 0 0 1 -1.25,4.1875 L 5,2.65625 -0.84375,21.8125 23.28125,21.28125 41.78125,11.5 39.34375,0.90625 A 5.5625264,5.5625264 0 0 1 40.15625,-3.5 l 8.625,-12.5625 -7.59375,-11.3125 -16.78125,-7.25 z" />
    </g>
    <g
       id="g736"
       transform="matrix(2.1905465,-0.62985374,-0.62337458,-2.1680128,333.58008,690.3333)"
       style="fill:#d3d3d3">
      <path
         inkscape:connector-curvature="0"
         d="m 0,0 8.978,-10.843 -3.552,-5.303 -0.053,-10.722 7.197,-4.824 10.177,4.377 2.909,4.339 -5.662,8.259 -3.759,4.059 1.656,5.254 1.279,5.51 L 8.309,5.848 -1.855,6.072 0,0 z"
         style="fill:#d3d3d3;fill-opacity:1;fill-rule:nonzero;stroke:none"
         id="path738" />
    </g>
    <g
       id="g740"
       transform="matrix(2.2793003,0,0,-2.2558537,201.45411,912.40911)"
       style="fill:#c0c0c0">
      <path
         inkscape:connector-curvature="0"
         d="m 0,0 7.141,-20.641 4.402,-2.562 2.7,-9.966 15.967,-3.809 8.954,2.947 12.058,3.318 11.799,16.498 -12.16,16.774 -9.979,5.967 -4.611,2.283 -6.772,2.459 -10.43,8.05 L 0,0 z"
         style="fill:#c0c0c0;fill-opacity:1;fill-rule:nonzero;stroke:none"
         id="path742" />
    </g>
    <g
       id="g744"
       transform="matrix(2.2793003,0,0,-2.2558537,238.18802,919.71404)"
       style="fill:#d3d3d3">
      <path
         inkscape:connector-curvature="0"
         d="m 0,0 2.697,-7.797 4.16,-2.415 1.637,-3.788 1.112,-4.1 3.871,-0.921 5.472,1.8 7.553,2.078 2.935,4.108 -4.462,6.16 -7,4.187 L 14.578,0.993 6.471,3.936 4.725,5.283 0,0 z"
         style="fill:#d3d3d3;fill-opacity:1;fill-rule:nonzero;stroke:none"
         id="path746" />
    </g>
  </g>
</svg>
