<?xml version="1.0" encoding="UTF-8" standalone="no"?>
<!-- Created with Inkscape (http://www.inkscape.org/) -->

<svg
   xmlns:dc="http://purl.org/dc/elements/1.1/"
   xmlns:cc="http://creativecommons.org/ns#"
   xmlns:rdf="http://www.w3.org/1999/02/22-rdf-syntax-ns#"
   xmlns:svg="http://www.w3.org/2000/svg"
   xmlns="http://www.w3.org/2000/svg"
   xmlns:sodipodi="http://sodipodi.sourceforge.net/DTD/sodipodi-0.dtd"
   xmlns:inkscape="http://www.inkscape.org/namespaces/inkscape"
   width="500"
   height="500"
   id="svg4269"
   version="1.1"
   inkscape:version="0.48.4 r9939"
   sodipodi:docname="wheat.svgz">
  <defs
     id="defs4271" />
  <sodipodi:namedview
     id="base"
     pagecolor="#ffffff"
     bordercolor="#666666"
     borderopacity="1.0"
     inkscape:pageopacity="0.0"
     inkscape:pageshadow="2"
     inkscape:zoom="1.28"
     inkscape:cx="199.59914"
     inkscape:cy="234.815"
     inkscape:document-units="px"
     inkscape:current-layer="layer1"
     showgrid="false"
     showborder="true"
     borderlayer="true"
     inkscape:showpageshadow="false"
     inkscape:snap-page="true"
     inkscape:window-width="1920"
     inkscape:window-height="1056"
     inkscape:window-x="0"
     inkscape:window-y="24"
     inkscape:window-maximized="1" />
  <metadata
     id="metadata4274">
    <rdf:RDF>
      <cc:Work
         rdf:about="">
        <dc:format>image/svg+xml</dc:format>
        <dc:type
           rdf:resource="http://purl.org/dc/dcmitype/StillImage" />
        <dc:title></dc:title>
      </cc:Work>
    </rdf:RDF>
  </metadata>
  <g
     inkscape:label="Layer 1"
     inkscape:groupmode="layer"
     id="layer1"
     transform="translate(0,-552.36218)">
    <g
       transform="matrix(2.5377921,0,0,-2.555764,-125.6143,1644.5683)"
       id="g902"
       clip-path="none">
      <g
         id="g908"
         transform="translate(237.3501,344.1104)">
        <path
           inkscape:connector-curvature="0"
           d="m 0,0 -14.174,-0.008 c -0.034,19.209 0.357,39.901 4.716,61.019 4.327,20.799 12.987,44.039 32.322,61.356 l 9.404,-10.605 C 16.249,97.478 8.389,77.344 4.42,58.128 0.398,38.672 -0.045,19.04 0,0"
           style="fill:#f9dc72;fill-opacity:1;fill-rule:nonzero;stroke:none"
           id="path910" />
      </g>
      <g
         id="g912"
         transform="translate(251.5229,344.1172)">
        <path
           inkscape:connector-curvature="0"
           d="m 0,0 -14.173,-0.007 c -0.045,19.04 0.398,38.672 4.421,58.128 3.968,19.216 11.828,39.35 27.847,53.634 l 9.403,-10.604 C 14.796,89.899 7.736,72.872 4.124,55.238 0.439,37.446 -0.057,18.872 0,0"
           style="fill:#f5a955;fill-opacity:1;fill-rule:nonzero;stroke:none"
           id="path914" />
      </g>
      <g
         id="g916"
         transform="translate(194.8301,344.1104)">
        <path
           inkscape:connector-curvature="0"
           d="m 0,0 -14.174,-0.008 c -0.034,19.209 0.357,39.9 4.716,61.019 4.326,20.799 12.985,44.039 32.32,61.356 l 9.404,-10.605 C 16.248,97.478 8.389,77.344 4.42,58.127 0.398,38.672 -0.045,19.04 0,0"
           style="fill:#f9dc72;fill-opacity:1;fill-rule:nonzero;stroke:none"
           id="path918" />
      </g>
      <g
         id="g920"
         transform="translate(209.0029,344.1172)">
        <path
           inkscape:connector-curvature="0"
           d="m 0,0 -14.173,-0.007 c -0.045,19.04 0.398,38.672 4.42,58.127 3.969,19.217 11.828,39.351 27.846,53.635 l 9.404,-10.604 C 14.795,89.899 7.735,72.872 4.124,55.238 0.439,37.446 -0.057,18.872 0,0"
           style="fill:#f5a955;fill-opacity:1;fill-rule:nonzero;stroke:none"
           id="path922" />
      </g>
      <g
         id="g924"
         transform="translate(223.1758,344.124)">
        <path
           inkscape:connector-curvature="0"
           d="m 0,0 -14.173,-0.007 c -0.057,18.872 0.439,37.446 4.124,55.238 3.611,17.634 10.671,34.661 23.373,45.914 L 22.727,90.54 C 13.342,82.32 7.083,68.399 3.827,52.347 0.48,36.221 -0.069,18.703 0,0"
           style="fill:#b0573d;fill-opacity:1;fill-rule:nonzero;stroke:none"
           id="path926" />
      </g>
      <g
         id="g928"
         transform="translate(152.3105,344.1104)">
        <path
           inkscape:connector-curvature="0"
           d="m 0,0 -14.174,-0.008 c -0.033,19.209 0.357,39.9 4.716,61.019 4.326,20.799 12.985,44.039 32.32,61.356 l 9.404,-10.605 C 16.248,97.478 8.389,77.344 4.42,58.127 0.398,38.672 -0.045,19.04 0,0"
           style="fill:#f9dc72;fill-opacity:1;fill-rule:nonzero;stroke:none"
           id="path930" />
      </g>
      <g
         id="g932"
         transform="translate(166.4834,344.1172)">
        <path
           inkscape:connector-curvature="0"
           d="m 0,0 -14.173,-0.007 c -0.045,19.04 0.398,38.672 4.42,58.127 3.969,19.217 11.828,39.351 27.846,53.635 l 9.404,-10.604 C 14.795,89.899 7.735,72.872 4.124,55.238 0.439,37.446 -0.057,18.872 0,0"
           style="fill:#f5a955;fill-opacity:1;fill-rule:nonzero;stroke:none"
           id="path934" />
      </g>
      <g
         id="g936"
         transform="translate(180.6563,344.124)">
        <path
           inkscape:connector-curvature="0"
           d="m 0,0 -14.173,-0.007 c -0.057,18.872 0.439,37.446 4.124,55.238 3.611,17.634 10.671,34.661 23.373,45.914 L 22.727,90.54 C 13.342,82.32 7.083,68.399 3.827,52.347 0.48,36.221 -0.069,18.703 0,0"
           style="fill:#b0573d;fill-opacity:1;fill-rule:nonzero;stroke:none"
           id="path938" />
      </g>
      <g
         id="g940"
         transform="translate(109.791,344.1104)">
        <path
           inkscape:connector-curvature="0"
           d="m 0,0 -14.174,-0.008 c -0.033,19.209 0.357,39.9 4.716,61.019 4.326,20.799 12.985,44.039 32.32,61.356 l 9.404,-10.605 C 16.248,97.478 8.389,77.344 4.42,58.127 0.398,38.672 -0.045,19.04 0,0"
           style="fill:#f9dc72;fill-opacity:1;fill-rule:nonzero;stroke:none"
           id="path942" />
      </g>
      <g
         id="g944"
         transform="translate(123.9639,344.1172)">
        <path
           inkscape:connector-curvature="0"
           d="m 0,0 -14.173,-0.007 c -0.045,19.04 0.398,38.672 4.42,58.127 3.969,19.217 11.828,39.351 27.846,53.635 l 9.404,-10.604 C 14.795,89.899 7.735,72.872 4.124,55.238 0.439,37.446 -0.057,18.872 0,0"
           style="fill:#f5a955;fill-opacity:1;fill-rule:nonzero;stroke:none"
           id="path946" />
      </g>
      <g
         id="g948"
         transform="translate(138.1367,344.124)">
        <path
           inkscape:connector-curvature="0"
           d="m 0,0 -14.173,-0.007 c -0.057,18.872 0.439,37.446 4.124,55.238 3.611,17.634 10.671,34.661 23.373,45.914 L 22.727,90.54 C 13.342,82.32 7.083,68.399 3.827,52.347 0.48,36.221 -0.069,18.703 0,0"
           style="fill:#b0573d;fill-opacity:1;fill-rule:nonzero;stroke:none"
           id="path950" />
      </g>
      <g
         id="g952"
         transform="translate(67.2715,344.1104)">
        <path
           inkscape:connector-curvature="0"
           d="m 0,0 -14.174,-0.008 c -0.033,19.209 0.357,39.9 4.716,61.019 4.326,20.799 12.985,44.039 32.32,61.356 l 9.404,-10.605 C 16.248,97.478 8.389,77.344 4.42,58.127 0.398,38.672 -0.045,19.04 0,0"
           style="fill:#f9dc72;fill-opacity:1;fill-rule:nonzero;stroke:none"
           id="path954" />
      </g>
      <g
         id="g956"
         transform="translate(81.4443,344.1172)">
        <path
           inkscape:connector-curvature="0"
           d="m 0,0 -14.173,-0.007 c -0.045,19.04 0.398,38.672 4.42,58.127 3.969,19.217 11.828,39.351 27.846,53.635 l 9.404,-10.604 C 14.795,89.899 7.735,72.872 4.124,55.238 0.439,37.446 -0.057,18.872 0,0"
           style="fill:#f5a955;fill-opacity:1;fill-rule:nonzero;stroke:none"
           id="path958" />
      </g>
      <g
         id="g960"
         transform="translate(95.6172,344.124)">
        <path
           inkscape:connector-curvature="0"
           d="m 0,0 -14.173,-0.007 c -0.057,18.872 0.439,37.446 4.124,55.238 3.611,17.634 10.671,34.661 23.373,45.914 L 22.727,90.54 C 13.342,82.32 7.083,68.399 3.827,52.347 0.48,36.221 -0.069,18.703 0,0"
           style="fill:#b0573d;fill-opacity:1;fill-rule:nonzero;stroke:none"
           id="path962" />
      </g>
      <g
         id="g964"
         transform="translate(24.752,344.1104)">
        <path
           inkscape:connector-curvature="0"
           d="m 0,0 -14.174,-0.008 c -0.033,19.209 0.357,39.9 4.716,61.019 4.326,20.799 12.985,44.039 32.32,61.356 l 9.404,-10.605 C 16.248,97.478 8.389,77.344 4.42,58.127 0.398,38.672 -0.045,19.04 0,0"
           style="fill:#f9dc72;fill-opacity:1;fill-rule:nonzero;stroke:none"
           id="path966" />
      </g>
      <g
         id="g968"
         transform="translate(38.9248,344.1172)">
        <path
           inkscape:connector-curvature="0"
           d="m 0,0 -14.173,-0.007 c -0.045,19.04 0.398,38.672 4.42,58.127 3.969,19.217 11.828,39.351 27.846,53.635 l 9.404,-10.604 C 14.795,89.899 7.735,72.872 4.124,55.238 0.439,37.446 -0.057,18.872 0,0"
           style="fill:#f5a955;fill-opacity:1;fill-rule:nonzero;stroke:none"
           id="path970" />
      </g>
      <g
         id="g972"
         transform="translate(53.0977,344.124)">
        <path
           inkscape:connector-curvature="0"
           d="m 0,0 -14.173,-0.007 c -0.057,18.872 0.439,37.446 4.124,55.238 3.611,17.634 10.671,34.661 23.373,45.914 L 22.727,90.54 C 13.342,82.32 7.083,68.399 3.827,52.347 0.48,36.221 -0.069,18.703 0,0"
           style="fill:#b0573d;fill-opacity:1;fill-rule:nonzero;stroke:none"
           id="path974" />
      </g>
      <g
         id="g976"
         transform="translate(73.3223,293.6045)">
        <path
           inkscape:connector-curvature="0"
           d="m 0,0 14.174,-0.008 c 0.034,19.209 -0.357,39.901 -4.716,61.02 -4.326,20.799 -12.985,44.039 -32.319,61.358 l -9.405,-10.605 C -16.248,97.479 -8.389,77.346 -4.42,58.129 -0.398,38.674 0.045,19.041 0,0"
           style="fill:#f9dc72;fill-opacity:1;fill-rule:nonzero;stroke:none"
           id="path978" />
      </g>
      <g
         id="g980"
         transform="translate(59.1494,293.6113)">
        <path
           inkscape:connector-curvature="0"
           d="m 0,0 14.173,-0.007 c 0.045,19.041 -0.398,38.674 -4.42,58.129 -3.969,19.217 -11.828,39.351 -27.846,53.636 l -9.404,-10.605 C -14.795,89.901 -7.736,72.873 -4.124,55.239 -0.439,37.446 0.057,18.872 0,0"
           style="fill:#f5a955;fill-opacity:1;fill-rule:nonzero;stroke:none"
           id="path982" />
      </g>
      <g
         id="g984"
         transform="translate(44.9766,293.6182)">
        <path
           inkscape:connector-curvature="0"
           d="M 0,0 14.173,-0.007 C 14.23,18.865 13.734,37.439 10.049,55.232 6.437,72.866 -0.622,89.895 -13.324,101.146 L -22.728,90.543 C -13.342,82.322 -7.083,68.4 -3.827,52.35 -0.48,36.221 0.069,18.703 0,0"
           style="fill:#b0573d;fill-opacity:1;fill-rule:nonzero;stroke:none"
           id="path986" />
      </g>
      <g
         id="g988"
         transform="translate(115.8418,293.6045)">
        <path
           inkscape:connector-curvature="0"
           d="m 0,0 14.174,-0.008 c 0.034,19.209 -0.357,39.901 -4.716,61.02 -4.326,20.799 -12.985,44.039 -32.319,61.358 l -9.405,-10.605 C -16.248,97.479 -8.389,77.346 -4.42,58.129 -0.398,38.674 0.045,19.041 0,0"
           style="fill:#f9dc72;fill-opacity:1;fill-rule:nonzero;stroke:none"
           id="path990" />
      </g>
      <g
         id="g992"
         transform="translate(101.6689,293.6113)">
        <path
           inkscape:connector-curvature="0"
           d="m 0,0 14.173,-0.007 c 0.045,19.041 -0.398,38.674 -4.42,58.129 -3.969,19.217 -11.828,39.351 -27.846,53.636 l -9.404,-10.605 C -14.795,89.901 -7.736,72.873 -4.124,55.239 -0.439,37.446 0.057,18.872 0,0"
           style="fill:#f5a955;fill-opacity:1;fill-rule:nonzero;stroke:none"
           id="path994" />
      </g>
      <g
         id="g996"
         transform="translate(87.4961,293.6182)">
        <path
           inkscape:connector-curvature="0"
           d="M 0,0 14.173,-0.007 C 14.23,18.865 13.734,37.439 10.049,55.232 6.437,72.866 -0.622,89.895 -13.324,101.146 L -22.728,90.543 C -13.342,82.322 -7.083,68.4 -3.827,52.35 -0.48,36.221 0.069,18.703 0,0"
           style="fill:#b0573d;fill-opacity:1;fill-rule:nonzero;stroke:none"
           id="path998" />
      </g>
      <g
         id="g1000"
         transform="translate(158.3613,293.6045)">
        <path
           inkscape:connector-curvature="0"
           d="m 0,0 14.174,-0.008 c 0.034,19.209 -0.357,39.901 -4.716,61.02 -4.326,20.799 -12.985,44.039 -32.319,61.358 l -9.405,-10.605 C -16.248,97.479 -8.389,77.346 -4.42,58.129 -0.398,38.674 0.045,19.041 0,0"
           style="fill:#f9dc72;fill-opacity:1;fill-rule:nonzero;stroke:none"
           id="path1002" />
      </g>
      <g
         id="g1004"
         transform="translate(144.1885,293.6113)">
        <path
           inkscape:connector-curvature="0"
           d="m 0,0 14.173,-0.007 c 0.045,19.041 -0.398,38.674 -4.42,58.129 -3.969,19.217 -11.828,39.351 -27.846,53.636 l -9.404,-10.605 C -14.795,89.901 -7.736,72.873 -4.124,55.239 -0.439,37.446 0.057,18.872 0,0"
           style="fill:#f5a955;fill-opacity:1;fill-rule:nonzero;stroke:none"
           id="path1006" />
      </g>
      <g
         id="g1008"
         transform="translate(130.0156,293.6182)">
        <path
           inkscape:connector-curvature="0"
           d="M 0,0 14.173,-0.007 C 14.23,18.865 13.734,37.439 10.049,55.232 6.437,72.866 -0.622,89.895 -13.324,101.146 L -22.728,90.543 C -13.342,82.322 -7.083,68.4 -3.827,52.35 -0.48,36.221 0.069,18.703 0,0"
           style="fill:#b0573d;fill-opacity:1;fill-rule:nonzero;stroke:none"
           id="path1010" />
      </g>
      <g
         id="g1012"
         transform="translate(200.8809,293.6045)">
        <path
           inkscape:connector-curvature="0"
           d="m 0,0 14.174,-0.008 c 0.034,19.209 -0.357,39.901 -4.716,61.02 -4.326,20.799 -12.985,44.039 -32.319,61.358 l -9.405,-10.605 C -16.248,97.479 -8.389,77.346 -4.42,58.129 -0.398,38.674 0.045,19.041 0,0"
           style="fill:#f9dc72;fill-opacity:1;fill-rule:nonzero;stroke:none"
           id="path1014" />
      </g>
      <g
         id="g1016"
         transform="translate(186.708,293.6113)">
        <path
           inkscape:connector-curvature="0"
           d="m 0,0 14.173,-0.007 c 0.045,19.041 -0.398,38.674 -4.42,58.129 -3.969,19.217 -11.828,39.351 -27.846,53.636 l -9.404,-10.605 C -14.795,89.901 -7.736,72.873 -4.124,55.239 -0.439,37.446 0.057,18.872 0,0"
           style="fill:#f5a955;fill-opacity:1;fill-rule:nonzero;stroke:none"
           id="path1018" />
      </g>
      <g
         id="g1020"
         transform="translate(172.5352,293.6182)">
        <path
           inkscape:connector-curvature="0"
           d="M 0,0 14.173,-0.007 C 14.23,18.865 13.734,37.439 10.049,55.232 6.437,72.866 -0.622,89.895 -13.324,101.146 L -22.728,90.543 C -13.342,82.322 -7.083,68.4 -3.827,52.35 -0.48,36.221 0.069,18.703 0,0"
           style="fill:#b0573d;fill-opacity:1;fill-rule:nonzero;stroke:none"
           id="path1022" />
      </g>
      <g
         id="g1024"
         transform="translate(243.4004,293.6045)">
        <path
           inkscape:connector-curvature="0"
           d="m 0,0 14.174,-0.008 c 0.034,19.209 -0.357,39.901 -4.716,61.02 -4.326,20.799 -12.985,44.039 -32.319,61.358 l -9.405,-10.605 C -16.248,97.479 -8.389,77.346 -4.42,58.129 -0.398,38.674 0.045,19.041 0,0"
           style="fill:#f9dc72;fill-opacity:1;fill-rule:nonzero;stroke:none"
           id="path1026" />
      </g>
      <g
         id="g1028"
         transform="translate(229.2275,293.6113)">
        <path
           inkscape:connector-curvature="0"
           d="m 0,0 14.173,-0.007 c 0.045,19.041 -0.398,38.674 -4.42,58.129 -3.969,19.217 -11.828,39.351 -27.846,53.636 l -9.404,-10.605 C -14.795,89.901 -7.736,72.873 -4.124,55.239 -0.439,37.446 0.057,18.872 0,0"
           style="fill:#f5a955;fill-opacity:1;fill-rule:nonzero;stroke:none"
           id="path1030" />
      </g>
      <g
         id="g1032"
         transform="translate(215.0547,293.6182)">
        <path
           inkscape:connector-curvature="0"
           d="M 0,0 14.173,-0.007 C 14.23,18.865 13.734,37.439 10.049,55.232 6.437,72.866 -0.622,89.895 -13.324,101.146 L -22.728,90.543 C -13.342,82.322 -7.083,68.4 -3.827,52.35 -0.48,36.221 0.069,18.703 0,0"
           style="fill:#b0573d;fill-opacity:1;fill-rule:nonzero;stroke:none"
           id="path1034" />
      </g>
      <g
         id="g1036"
         transform="translate(271.7476,293.6113)">
        <path
           inkscape:connector-curvature="0"
           d="m 0,0 14.173,-0.007 c 0.045,19.041 -0.398,38.674 -4.42,58.129 -3.969,19.217 -11.829,39.352 -27.846,53.636 l -9.404,-10.605 C -14.795,89.901 -7.735,72.874 -4.124,55.239 -0.439,37.447 0.057,18.872 0,0"
           style="fill:#f5a955;fill-opacity:1;fill-rule:nonzero;stroke:none"
           id="path1038" />
      </g>
      <g
         id="g1040"
         transform="translate(257.5747,293.6182)">
        <path
           inkscape:connector-curvature="0"
           d="M 0,0 14.173,-0.007 C 14.23,18.865 13.734,37.44 10.049,55.232 6.438,72.867 -0.623,89.895 -13.324,101.146 L -22.728,90.543 C -13.342,82.322 -7.083,68.4 -3.827,52.35 -0.48,36.221 0.069,18.704 0,0"
           style="fill:#b0573d;fill-opacity:1;fill-rule:nonzero;stroke:none"
           id="path1042" />
      </g>
      <g
         id="g1044"
         transform="translate(236.8667,243.0996)">
        <path
           inkscape:connector-curvature="0"
           d="m 0,0 -14.174,-0.007 c -0.034,19.209 0.357,39.9 4.716,61.02 4.326,20.799 12.986,44.039 32.32,61.357 l 9.404,-10.605 C 16.249,97.479 8.389,77.346 4.42,58.129 0.398,38.673 -0.045,19.04 0,0"
           style="fill:#f9dc72;fill-opacity:1;fill-rule:nonzero;stroke:none"
           id="path1046" />
      </g>
      <g
         id="g1048"
         transform="translate(251.0396,243.1064)">
        <path
           inkscape:connector-curvature="0"
           d="m 0,0 -14.173,-0.007 c -0.045,19.04 0.398,38.673 4.42,58.129 3.969,19.217 11.829,39.351 27.846,53.636 l 9.404,-10.604 C 14.795,89.9 7.736,72.873 4.124,55.238 0.439,37.447 -0.057,18.872 0,0"
           style="fill:#f5a955;fill-opacity:1;fill-rule:nonzero;stroke:none"
           id="path1050" />
      </g>
      <g
         id="g1052"
         transform="translate(194.3472,243.0996)">
        <path
           inkscape:connector-curvature="0"
           d="m 0,0 -14.174,-0.007 c -0.034,19.209 0.357,39.9 4.716,61.019 4.326,20.8 12.985,44.04 32.319,61.358 l 9.405,-10.605 C 16.248,97.479 8.389,77.345 4.42,58.129 0.398,38.673 -0.045,19.04 0,0"
           style="fill:#f9dc72;fill-opacity:1;fill-rule:nonzero;stroke:none"
           id="path1054" />
      </g>
      <g
         id="g1056"
         transform="translate(208.52,243.1064)">
        <path
           inkscape:connector-curvature="0"
           d="m 0,0 -14.173,-0.007 c -0.045,19.04 0.398,38.673 4.42,58.129 3.969,19.216 11.828,39.351 27.846,53.636 l 9.404,-10.604 C 14.795,89.9 7.736,72.873 4.124,55.238 0.439,37.447 -0.057,18.872 0,0"
           style="fill:#f5a955;fill-opacity:1;fill-rule:nonzero;stroke:none"
           id="path1058" />
      </g>
      <g
         id="g1060"
         transform="translate(222.6929,243.1143)">
        <path
           inkscape:connector-curvature="0"
           d="m 0,0 -14.173,-0.008 c -0.057,18.872 0.439,37.447 4.124,55.238 3.612,17.635 10.671,34.663 23.373,45.916 L 22.728,90.543 C 13.342,82.322 7.083,68.4 3.827,52.348 0.48,36.22 -0.069,18.703 0,0"
           style="fill:#b0573d;fill-opacity:1;fill-rule:nonzero;stroke:none"
           id="path1062" />
      </g>
      <g
         id="g1064"
         transform="translate(151.8276,243.0996)">
        <path
           inkscape:connector-curvature="0"
           d="m 0,0 -14.174,-0.007 c -0.034,19.209 0.357,39.9 4.716,61.019 4.326,20.8 12.985,44.04 32.319,61.358 l 9.405,-10.605 C 16.248,97.479 8.389,77.345 4.42,58.129 0.398,38.673 -0.045,19.04 0,0"
           style="fill:#f9dc72;fill-opacity:1;fill-rule:nonzero;stroke:none"
           id="path1066" />
      </g>
      <g
         id="g1068"
         transform="translate(166.0005,243.1064)">
        <path
           inkscape:connector-curvature="0"
           d="m 0,0 -14.173,-0.007 c -0.045,19.04 0.398,38.673 4.42,58.129 3.969,19.216 11.828,39.351 27.846,53.636 l 9.404,-10.604 C 14.795,89.9 7.736,72.873 4.124,55.238 0.439,37.447 -0.057,18.872 0,0"
           style="fill:#f5a955;fill-opacity:1;fill-rule:nonzero;stroke:none"
           id="path1070" />
      </g>
      <g
         id="g1072"
         transform="translate(180.1733,243.1143)">
        <path
           inkscape:connector-curvature="0"
           d="m 0,0 -14.173,-0.008 c -0.057,18.872 0.439,37.447 4.124,55.238 3.612,17.635 10.671,34.663 23.373,45.916 L 22.728,90.543 C 13.342,82.322 7.083,68.4 3.827,52.348 0.48,36.22 -0.069,18.703 0,0"
           style="fill:#b0573d;fill-opacity:1;fill-rule:nonzero;stroke:none"
           id="path1074" />
      </g>
      <g
         id="g1076"
         transform="translate(109.3081,243.0996)">
        <path
           inkscape:connector-curvature="0"
           d="m 0,0 -14.174,-0.007 c -0.034,19.209 0.357,39.9 4.716,61.019 4.326,20.8 12.985,44.04 32.319,61.358 l 9.405,-10.605 C 16.248,97.479 8.389,77.345 4.42,58.129 0.398,38.673 -0.045,19.04 0,0"
           style="fill:#f9dc72;fill-opacity:1;fill-rule:nonzero;stroke:none"
           id="path1078" />
      </g>
      <g
         id="g1080"
         transform="translate(123.481,243.1064)">
        <path
           inkscape:connector-curvature="0"
           d="m 0,0 -14.173,-0.007 c -0.045,19.04 0.398,38.673 4.42,58.129 3.969,19.216 11.828,39.351 27.846,53.636 l 9.404,-10.604 C 14.795,89.9 7.736,72.873 4.124,55.238 0.439,37.447 -0.057,18.872 0,0"
           style="fill:#f5a955;fill-opacity:1;fill-rule:nonzero;stroke:none"
           id="path1082" />
      </g>
      <g
         id="g1084"
         transform="translate(137.6538,243.1143)">
        <path
           inkscape:connector-curvature="0"
           d="m 0,0 -14.173,-0.008 c -0.057,18.872 0.439,37.447 4.124,55.238 3.612,17.635 10.671,34.663 23.373,45.916 L 22.728,90.543 C 13.342,82.322 7.083,68.4 3.827,52.348 0.48,36.22 -0.069,18.703 0,0"
           style="fill:#b0573d;fill-opacity:1;fill-rule:nonzero;stroke:none"
           id="path1086" />
      </g>
      <g
         id="g1088"
         transform="translate(66.7886,243.0996)">
        <path
           inkscape:connector-curvature="0"
           d="m 0,0 -14.174,-0.007 c -0.034,19.209 0.357,39.9 4.716,61.019 4.326,20.8 12.985,44.04 32.319,61.358 l 9.405,-10.605 C 16.248,97.479 8.389,77.345 4.42,58.129 0.398,38.673 -0.045,19.04 0,0"
           style="fill:#f9dc72;fill-opacity:1;fill-rule:nonzero;stroke:none"
           id="path1090" />
      </g>
      <g
         id="g1092"
         transform="translate(80.9614,243.1064)">
        <path
           inkscape:connector-curvature="0"
           d="m 0,0 -14.173,-0.007 c -0.045,19.04 0.398,38.673 4.42,58.129 3.969,19.216 11.828,39.351 27.846,53.636 l 9.404,-10.604 C 14.795,89.9 7.736,72.873 4.124,55.238 0.439,37.447 -0.057,18.872 0,0"
           style="fill:#f5a955;fill-opacity:1;fill-rule:nonzero;stroke:none"
           id="path1094" />
      </g>
      <g
         id="g1096"
         transform="translate(95.1343,243.1143)">
        <path
           inkscape:connector-curvature="0"
           d="m 0,0 -14.173,-0.008 c -0.057,18.872 0.439,37.447 4.124,55.238 3.612,17.635 10.671,34.663 23.373,45.916 L 22.728,90.543 C 13.342,82.322 7.083,68.4 3.827,52.348 0.48,36.22 -0.069,18.703 0,0"
           style="fill:#b0573d;fill-opacity:1;fill-rule:nonzero;stroke:none"
           id="path1098" />
      </g>
      <g
         id="g1100"
         transform="translate(24.269,243.0996)">
        <path
           inkscape:connector-curvature="0"
           d="m 0,0 -14.174,-0.007 c -0.034,19.209 0.357,39.9 4.716,61.019 4.326,20.8 12.985,44.04 32.319,61.358 l 9.405,-10.605 C 16.248,97.479 8.389,77.345 4.42,58.129 0.398,38.673 -0.045,19.04 0,0"
           style="fill:#f9dc72;fill-opacity:1;fill-rule:nonzero;stroke:none"
           id="path1102" />
      </g>
      <g
         id="g1104"
         transform="translate(38.4419,243.1064)">
        <path
           inkscape:connector-curvature="0"
           d="m 0,0 -14.173,-0.007 c -0.045,19.04 0.398,38.673 4.42,58.129 3.969,19.216 11.828,39.351 27.846,53.636 l 9.404,-10.604 C 14.795,89.9 7.736,72.873 4.124,55.238 0.439,37.447 -0.057,18.872 0,0"
           style="fill:#f5a955;fill-opacity:1;fill-rule:nonzero;stroke:none"
           id="path1106" />
      </g>
      <g
         id="g1108"
         transform="translate(52.6147,243.1143)">
        <path
           inkscape:connector-curvature="0"
           d="m 0,0 -14.173,-0.008 c -0.057,18.872 0.439,37.447 4.124,55.238 3.612,17.635 10.671,34.663 23.373,45.916 L 22.728,90.543 C 13.342,82.322 7.083,68.4 3.827,52.348 0.48,36.22 -0.069,18.703 0,0"
           style="fill:#b0573d;fill-opacity:1;fill-rule:nonzero;stroke:none"
           id="path1110" />
      </g>
      <g
         id="g1112"
         transform="translate(73.3223,192.5947)">
        <path
           inkscape:connector-curvature="0"
           d="m 0,0 14.174,-0.008 c 0.034,19.209 -0.357,39.901 -4.716,61.02 -4.326,20.799 -12.985,44.039 -32.319,61.357 l -9.405,-10.603 C -16.248,97.479 -8.389,77.346 -4.42,58.129 -0.398,38.674 0.045,19.041 0,0"
           style="fill:#f9dc72;fill-opacity:1;fill-rule:nonzero;stroke:none"
           id="path1114" />
      </g>
      <g
         id="g1116"
         transform="translate(59.1494,192.6025)">
        <path
           inkscape:connector-curvature="0"
           d="m 0,0 14.173,-0.008 c 0.045,19.041 -0.398,38.674 -4.42,58.129 -3.969,19.217 -11.828,39.351 -27.846,53.637 l -9.404,-10.605 C -14.795,89.9 -7.736,72.872 -4.124,55.238 -0.439,37.445 0.057,18.871 0,0"
           style="fill:#f5a955;fill-opacity:1;fill-rule:nonzero;stroke:none"
           id="path1118" />
      </g>
      <g
         id="g1120"
         transform="translate(44.9766,192.6084)">
        <path
           inkscape:connector-curvature="0"
           d="M 0,0 14.173,-0.006 C 14.23,18.865 13.734,37.439 10.049,55.232 6.437,72.866 -0.622,89.895 -13.324,101.147 L -22.728,90.543 C -13.342,82.322 -7.083,68.4 -3.827,52.35 -0.48,36.221 0.069,18.703 0,0"
           style="fill:#b0573d;fill-opacity:1;fill-rule:nonzero;stroke:none"
           id="path1122" />
      </g>
      <g
         id="g1124"
         transform="translate(115.8418,192.5947)">
        <path
           inkscape:connector-curvature="0"
           d="m 0,0 14.174,-0.008 c 0.034,19.209 -0.357,39.901 -4.716,61.02 -4.326,20.799 -12.985,44.039 -32.319,61.357 l -9.405,-10.603 C -16.248,97.479 -8.389,77.346 -4.42,58.129 -0.398,38.674 0.045,19.041 0,0"
           style="fill:#f9dc72;fill-opacity:1;fill-rule:nonzero;stroke:none"
           id="path1126" />
      </g>
      <g
         id="g1128"
         transform="translate(101.6689,192.6025)">
        <path
           inkscape:connector-curvature="0"
           d="m 0,0 14.173,-0.008 c 0.045,19.041 -0.398,38.674 -4.42,58.129 -3.969,19.217 -11.828,39.351 -27.846,53.637 l -9.404,-10.605 C -14.795,89.9 -7.736,72.872 -4.124,55.238 -0.439,37.445 0.057,18.871 0,0"
           style="fill:#f5a955;fill-opacity:1;fill-rule:nonzero;stroke:none"
           id="path1130" />
      </g>
      <g
         id="g1132"
         transform="translate(87.4961,192.6084)">
        <path
           inkscape:connector-curvature="0"
           d="M 0,0 14.173,-0.006 C 14.23,18.865 13.734,37.439 10.049,55.232 6.437,72.866 -0.622,89.895 -13.324,101.147 L -22.728,90.543 C -13.342,82.322 -7.083,68.4 -3.827,52.35 -0.48,36.221 0.069,18.703 0,0"
           style="fill:#b0573d;fill-opacity:1;fill-rule:nonzero;stroke:none"
           id="path1134" />
      </g>
      <g
         id="g1136"
         transform="translate(158.3613,192.5947)">
        <path
           inkscape:connector-curvature="0"
           d="m 0,0 14.174,-0.008 c 0.034,19.209 -0.357,39.901 -4.716,61.02 -4.326,20.799 -12.985,44.039 -32.319,61.357 l -9.405,-10.603 C -16.248,97.479 -8.389,77.346 -4.42,58.129 -0.398,38.674 0.045,19.041 0,0"
           style="fill:#f9dc72;fill-opacity:1;fill-rule:nonzero;stroke:none"
           id="path1138" />
      </g>
      <g
         id="g1140"
         transform="translate(144.1885,192.6025)">
        <path
           inkscape:connector-curvature="0"
           d="m 0,0 14.173,-0.008 c 0.045,19.041 -0.398,38.674 -4.42,58.129 -3.969,19.217 -11.828,39.351 -27.846,53.637 l -9.404,-10.605 C -14.795,89.9 -7.736,72.872 -4.124,55.238 -0.439,37.445 0.057,18.871 0,0"
           style="fill:#f5a955;fill-opacity:1;fill-rule:nonzero;stroke:none"
           id="path1142" />
      </g>
      <g
         id="g1144"
         transform="translate(130.0156,192.6084)">
        <path
           inkscape:connector-curvature="0"
           d="M 0,0 14.173,-0.006 C 14.23,18.865 13.734,37.439 10.049,55.232 6.437,72.866 -0.622,89.895 -13.324,101.147 L -22.728,90.543 C -13.342,82.322 -7.083,68.4 -3.827,52.35 -0.48,36.221 0.069,18.703 0,0"
           style="fill:#b0573d;fill-opacity:1;fill-rule:nonzero;stroke:none"
           id="path1146" />
      </g>
      <g
         id="g1148"
         transform="translate(200.8809,192.5947)">
        <path
           inkscape:connector-curvature="0"
           d="m 0,0 14.174,-0.008 c 0.034,19.209 -0.357,39.901 -4.716,61.02 -4.326,20.799 -12.985,44.039 -32.319,61.357 l -9.405,-10.603 C -16.248,97.479 -8.389,77.346 -4.42,58.129 -0.398,38.674 0.045,19.041 0,0"
           style="fill:#f9dc72;fill-opacity:1;fill-rule:nonzero;stroke:none"
           id="path1150" />
      </g>
      <g
         id="g1152"
         transform="translate(186.708,192.6025)">
        <path
           inkscape:connector-curvature="0"
           d="m 0,0 14.173,-0.008 c 0.045,19.041 -0.398,38.674 -4.42,58.129 -3.969,19.217 -11.828,39.351 -27.846,53.637 l -9.404,-10.605 C -14.795,89.9 -7.736,72.872 -4.124,55.238 -0.439,37.445 0.057,18.871 0,0"
           style="fill:#f5a955;fill-opacity:1;fill-rule:nonzero;stroke:none"
           id="path1154" />
      </g>
      <g
         id="g1156"
         transform="translate(172.5352,192.6084)">
        <path
           inkscape:connector-curvature="0"
           d="M 0,0 14.173,-0.006 C 14.23,18.865 13.734,37.439 10.049,55.232 6.437,72.866 -0.622,89.895 -13.324,101.147 L -22.728,90.543 C -13.342,82.322 -7.083,68.4 -3.827,52.35 -0.48,36.221 0.069,18.703 0,0"
           style="fill:#b0573d;fill-opacity:1;fill-rule:nonzero;stroke:none"
           id="path1158" />
      </g>
      <g
         id="g1160"
         transform="translate(243.4004,192.5947)">
        <path
           inkscape:connector-curvature="0"
           d="m 0,0 14.174,-0.008 c 0.034,19.209 -0.357,39.901 -4.716,61.02 -4.326,20.799 -12.985,44.039 -32.319,61.357 l -9.405,-10.603 C -16.248,97.479 -8.389,77.346 -4.42,58.129 -0.398,38.674 0.045,19.041 0,0"
           style="fill:#f9dc72;fill-opacity:1;fill-rule:nonzero;stroke:none"
           id="path1162" />
      </g>
      <g
         id="g1164"
         transform="translate(229.2275,192.6025)">
        <path
           inkscape:connector-curvature="0"
           d="m 0,0 14.173,-0.008 c 0.045,19.041 -0.398,38.674 -4.42,58.129 -3.969,19.217 -11.828,39.351 -27.846,53.637 l -9.404,-10.605 C -14.795,89.9 -7.736,72.872 -4.124,55.238 -0.439,37.445 0.057,18.871 0,0"
           style="fill:#f5a955;fill-opacity:1;fill-rule:nonzero;stroke:none"
           id="path1166" />
      </g>
      <g
         id="g1168"
         transform="translate(215.0547,192.6084)">
        <path
           inkscape:connector-curvature="0"
           d="M 0,0 14.173,-0.006 C 14.23,18.865 13.734,37.439 10.049,55.232 6.437,72.866 -0.622,89.895 -13.324,101.147 L -22.728,90.543 C -13.342,82.322 -7.083,68.4 -3.827,52.35 -0.48,36.221 0.069,18.703 0,0"
           style="fill:#b0573d;fill-opacity:1;fill-rule:nonzero;stroke:none"
           id="path1170" />
      </g>
      <g
         id="g1172"
         transform="translate(271.7476,192.6025)">
        <path
           inkscape:connector-curvature="0"
           d="m 0,0 14.173,-0.008 c 0.045,19.041 -0.398,38.674 -4.42,58.129 -3.969,19.217 -11.829,39.351 -27.846,53.637 l -9.404,-10.605 C -14.795,89.9 -7.735,72.873 -4.124,55.238 -0.439,37.446 0.057,18.871 0,0"
           style="fill:#f5a955;fill-opacity:1;fill-rule:nonzero;stroke:none"
           id="path1174" />
      </g>
      <g
         id="g1176"
         transform="translate(257.5747,192.6084)">
        <path
           inkscape:connector-curvature="0"
           d="M 0,0 14.173,-0.006 C 14.23,18.865 13.734,37.44 10.049,55.232 6.438,72.867 -0.623,89.895 -13.324,101.147 L -22.728,90.543 C -13.342,82.322 -7.083,68.4 -3.827,52.35 -0.48,36.221 0.069,18.703 0,0"
           style="fill:#b0573d;fill-opacity:1;fill-rule:nonzero;stroke:none"
           id="path1178" />
      </g>
    </g>
  </g>
</svg>
